<svg width="326" height="303" viewBox="0 0 326 303" fill="none" xmlns="http://www.w3.org/2000/svg">
<mask id="mask0_331_12248" style="mask-type:alpha" maskUnits="userSpaceOnUse" x="0" y="0" width="326" height="303">
<path d="M282.999 182.802C282.999 249.185 229.275 303 163.002 303C96.7286 303 43.0036 249.185 43.0036 182.802C43.0036 177.886 -0.566915 120.452 0.00559297 115.691C7.1642 56.156 43.0036 0 161.503 0C259.501 0 320.917 32.959 325.999 94.656C326.271 97.9589 282.999 179.429 282.999 182.802Z" fill="#E9509C"/>
</mask>
<g mask="url(#mask0_331_12248)">
<path d="M84.924 201.365C98.5419 201.365 109.581 191.215 109.581 178.693C109.581 166.172 98.5419 156.021 84.924 156.021C71.3061 156.021 60.2666 166.172 60.2666 178.693C60.2666 191.215 71.3061 201.365 84.924 201.365Z" fill="#E9509C"/>
<path d="M114.723 124.308C114.665 124.308 114.612 124.308 114.554 124.297C113.873 124.213 113.394 123.632 113.489 123.006L116.317 103.926C116.412 103.299 117.04 102.863 117.721 102.946C118.403 103.03 118.882 103.611 118.787 104.237L115.958 123.317C115.871 123.89 115.339 124.308 114.723 124.308Z" fill="#A4DDEE"/>
<path d="M123.651 101.515C123.523 104.325 120.859 106.615 117.7 106.615C114.541 106.615 112.125 104.321 112.299 101.515C112.468 98.7285 115.132 96.4845 118.245 96.4845C121.359 96.4845 123.779 98.7285 123.651 101.515Z" fill="#A4DDEE"/>
<path d="M202.166 101.515C202.294 104.325 204.958 106.615 208.117 106.615C211.272 106.615 213.692 104.321 213.518 101.515C213.349 98.7285 210.685 96.4845 207.572 96.4845C204.458 96.4845 202.038 98.7285 202.166 101.515Z" fill="#FDCF59"/>
<path d="M211.3 124.308C211.358 124.308 211.412 124.308 211.469 124.297C212.151 124.213 212.63 123.632 212.535 123.006L209.706 103.926C209.611 103.299 208.983 102.863 208.302 102.946C207.621 103.03 207.142 103.611 207.237 104.237L210.065 123.317C210.152 123.89 210.685 124.308 211.3 124.308Z" fill="#FDCF59"/>
<path d="M125.33 101.104C125.193 104.074 122.377 106.496 119.044 106.496C115.712 106.496 113.152 104.074 113.333 101.104C113.515 98.158 116.327 95.7849 119.618 95.7849C122.91 95.7849 125.466 98.158 125.33 101.104Z" fill="#1F1C6B"/>
<path d="M121.126 104.42C117.761 104.42 115.138 102.112 115.019 99.1842C114.655 99.7727 114.424 100.433 114.379 101.14C114.23 103.581 116.332 105.575 119.078 105.575C120.465 105.575 121.741 105.066 122.679 104.246C122.179 104.356 121.659 104.42 121.126 104.42Z" fill="#705FA9"/>
<path d="M115.881 124.308C115.824 124.308 115.77 124.308 115.712 124.297C115.031 124.213 114.552 123.632 114.647 123.006L117.475 103.926C117.57 103.299 118.198 102.863 118.88 102.946C119.561 103.03 120.04 103.611 119.945 104.237L117.116 123.317C117.03 123.89 116.497 124.308 115.881 124.308Z" fill="#1F1C6B"/>
<path d="M121.286 121.783L114.596 121.799C111.322 121.821 108.741 125.368 108.163 128.329L104.268 144.318C102.707 150.12 108.472 155.816 115.963 155.816H121.142L121.29 121.783H121.286Z" fill="#1F1C6B"/>
<mask id="mask1_331_12248" style="mask-type:luminance" maskUnits="userSpaceOnUse" x="104" y="121" width="18" height="35">
<path d="M121.289 121.783L114.599 121.799C111.325 121.821 108.744 125.368 108.165 128.329L104.271 144.318C102.71 150.12 108.475 155.816 115.966 155.816H121.145L121.293 121.783H121.289Z" fill="white"/>
</mask>
<g mask="url(#mask1_331_12248)">
<path d="M106.348 146.498C106.348 146.498 106.348 147.121 106.542 147.831C106.806 148.792 107.748 149.471 108.829 149.471H117.691V146.498C117.691 146.498 106.348 146.206 106.348 146.498Z" fill="#705FA9"/>
</g>
<path d="M123.402 104.526L119.115 105.939L119.883 103.224H121.581L123.402 104.526Z" fill="#1F1C6B"/>
<path d="M200.699 101.104C200.835 104.074 203.651 106.496 206.984 106.496C210.316 106.496 212.877 104.074 212.695 101.104C212.513 98.158 209.701 95.7849 206.41 95.7849C203.118 95.7849 200.562 98.158 200.699 101.104Z" fill="#1F1C6B"/>
<path d="M211.652 101.14C211.611 100.437 211.379 99.7727 211.012 99.1842C210.888 102.112 208.27 104.42 204.904 104.42C204.372 104.42 203.851 104.356 203.352 104.246C204.289 105.066 205.565 105.575 206.953 105.575C209.699 105.575 211.801 103.581 211.652 101.14Z" fill="#705FA9"/>
<path d="M210.146 124.308C209.53 124.308 208.998 123.891 208.911 123.317L206.082 104.237C205.987 103.611 206.466 103.034 207.148 102.946C207.829 102.855 208.457 103.3 208.552 103.926L211.38 123.006C211.475 123.632 210.996 124.21 210.315 124.297C210.257 124.304 210.199 124.308 210.146 124.308Z" fill="#1F1C6B"/>
<path d="M204.74 121.783L211.43 121.799C214.705 121.821 217.286 125.368 217.864 128.329L221.758 144.318C223.319 150.12 217.554 155.816 210.063 155.816H204.885L204.736 121.783H204.74Z" fill="#1F1C6B"/>
<mask id="mask2_331_12248" style="mask-type:luminance" maskUnits="userSpaceOnUse" x="204" y="121" width="19" height="35">
<path d="M204.739 121.783L211.428 121.799C214.703 121.821 217.284 125.368 217.862 128.329L221.756 144.318C223.317 150.12 217.552 155.816 210.061 155.816H204.883L204.734 121.783H204.739Z" fill="white"/>
</mask>
<g mask="url(#mask2_331_12248)">
<path d="M219.689 146.497C219.689 146.497 219.689 147.12 219.494 147.83C219.23 148.791 218.289 149.471 217.207 149.471H208.345V146.497C208.345 146.497 219.689 146.205 219.689 146.497Z" fill="#705FA9"/>
</g>
<path d="M202.626 104.526L206.912 105.939L206.144 103.224H204.447L202.626 104.526Z" fill="#1F1C6B"/>
<path d="M196.673 178.894L127.867 180.269C123.766 180.269 120.822 177.558 121.285 174.281L116.057 154.271C116.445 151.689 128.59 131.067 132.054 131.071L193.931 131.094C197.4 131.094 209.582 151.731 209.974 154.313L203.247 172.933C203.706 176.198 200.766 178.898 196.669 178.894H196.673Z" fill="#1F1C6B"/>
<path d="M191.546 113.228L134.41 113.179L134.844 109.101C135.046 107.218 137.462 105.71 140.245 105.714L185.715 105.752C188.499 105.752 190.919 107.263 191.117 109.15L191.546 113.228Z" fill="#1F1C6B"/>
<path d="M202.854 160.672L123.179 160.638C118.715 160.638 115.527 157.752 116.052 154.27L121.829 115.906C122.225 113.286 125.595 111.197 129.361 111.201L196.61 111.228C200.381 111.228 203.75 113.32 204.151 115.94L209.969 154.312C210.498 157.794 207.314 160.676 202.85 160.672H202.854Z" fill="#2D2E8C"/>
<mask id="mask3_331_12248" style="mask-type:luminance" maskUnits="userSpaceOnUse" x="116" y="111" width="95" height="50">
<path d="M202.862 160.672L123.187 160.638C118.723 160.638 115.535 157.752 116.059 154.27L121.837 115.906C122.233 113.286 125.603 111.197 129.369 111.201L196.618 111.228C200.388 111.228 203.758 113.32 204.159 115.94L209.977 154.312C210.506 157.794 207.322 160.676 202.858 160.672H202.862Z" fill="white"/>
</mask>
<g mask="url(#mask3_331_12248)">
<path d="M217.759 157.077H110.292V170.977H217.759V157.077Z" fill="#705FA9"/>
</g>
<path d="M195.265 148.993L130.778 148.967L132.211 136.85L194.022 136.877L195.265 148.993Z" fill="#1F1C6B"/>
<mask id="mask4_331_12248" style="mask-type:luminance" maskUnits="userSpaceOnUse" x="130" y="136" width="66" height="13">
<path d="M195.271 148.993L130.784 148.967L132.217 136.85L194.028 136.877L195.271 148.993Z" fill="white"/>
</mask>
<g mask="url(#mask4_331_12248)">
<path d="M194.144 136.679H131.899L131.862 139.329H194.181L194.144 136.679Z" fill="#705FA9"/>
</g>
<path d="M166.526 133.09H159.448L158.366 129.403H167.641L166.526 133.09Z" fill="#705FA9"/>
<path d="M154.321 124.166C154.548 129.36 149.018 133.802 141.961 133.802C134.904 133.802 129.606 129.36 130.097 124.166C130.56 119.26 136.072 115.482 142.432 115.482C148.791 115.482 154.11 119.26 154.321 124.166Z" fill="#1F1C6B"/>
<path d="M195.548 124.164C196.035 129.359 190.733 133.801 183.676 133.801C176.618 133.801 171.093 129.359 171.324 124.164C171.539 119.259 176.862 115.481 183.222 115.481C189.581 115.481 195.09 119.259 195.552 124.164H195.548Z" fill="#1F1C6B"/>
<path d="M152.627 123.557C152.565 128.322 147.795 131.849 141.997 131.849C136.195 131.849 131.653 128.246 131.83 123.557C132.033 118.317 136.794 114.117 142.472 114.117C148.15 114.117 152.697 118.317 152.631 123.557H152.627Z" fill="#E9509C"/>
<path d="M193.824 123.557C194.006 128.322 189.414 131.849 183.612 131.849C177.81 131.849 173.086 128.246 173.028 123.557C172.966 118.317 177.513 114.117 183.191 114.117C188.869 114.117 193.626 118.317 193.824 123.557Z" fill="#E9509C"/>
<path d="M165.547 106.301L160.406 106.297L158.366 129.405L167.641 129.409L165.547 106.301Z" fill="#1F1C6B"/>
<path d="M66.3812 67.3877L73.4138 53.9654C70.3455 53.0996 69.4453 49.4811 71.3408 45.8892C73.2279 42.32 77.2212 40.0456 80.306 40.805L87.2312 28.0737L78.9267 20.6469L75.9741 21.3227L56.9783 32.2049L55.9128 42.3504L54.9961 50.2519L66.3771 67.3877H66.3812Z" fill="#1F1C6B"/>
<mask id="mask5_331_12248" style="mask-type:luminance" maskUnits="userSpaceOnUse" x="55" y="20" width="33" height="48">
<path d="M66.389 67.3877L73.4216 53.9654C70.3534 53.0996 69.4531 49.4811 71.3486 45.8892C73.2358 42.32 77.229 40.0456 80.3138 40.805L87.239 28.0737L78.9345 20.6469L75.9819 21.3227L56.9861 32.2049L55.9207 42.3504L55.0039 50.2519L66.3849 67.3877H66.389Z" fill="white"/>
</mask>
<g mask="url(#mask5_331_12248)">
<path d="M82.3749 21.3268L90.6711 27.8956L87.4831 30.4586L78.0058 22.0559L70.7998 22.6292L78.5716 19.1018L82.3749 21.3268Z" fill="#705FA9"/>
</g>
<path d="M61.5428 37.2702C59.3088 40.6912 59.8621 44.3705 62.8354 45.483L54.5474 58.2864C45.8754 54.6755 44.5953 43.6339 51.2356 33.6213C57.7685 23.7757 69.9547 17.9853 78.9116 20.647L70.9582 32.9302C67.956 31.924 63.7604 33.8681 61.5387 37.2702H61.5428Z" fill="#2D2E8C"/>
<path d="M61.5428 37.2702C59.3088 40.6912 59.8621 44.3705 62.8354 45.483L54.5474 58.2864C45.8754 54.6755 44.5953 43.6339 51.2356 33.6213C57.7685 23.7757 69.9547 17.9853 78.9116 20.647L70.9582 32.9302C67.956 31.924 63.7604 33.8681 61.5387 37.2702H61.5428Z" fill="#2D2E8C"/>
<mask id="mask6_331_12248" style="mask-type:luminance" maskUnits="userSpaceOnUse" x="47" y="20" width="32" height="39">
<path d="M61.5507 37.2702C59.3166 40.6912 59.8699 44.3705 62.8432 45.483L54.5552 58.2864C45.8832 54.6755 44.6031 43.6339 51.2434 33.6213C57.7763 23.7757 69.9625 17.9853 78.9194 20.647L70.966 32.9302C67.9638 31.924 63.7682 33.8681 61.5465 37.2702H61.5507Z" fill="white"/>
</mask>
<g mask="url(#mask6_331_12248)">
<path d="M66.1392 38.0018C63.7069 41.0356 64.285 44.6959 67.4895 46.1881L58.4706 57.5411C49.1255 52.8328 47.8041 41.8861 55.0307 33.0315C62.1376 24.3213 75.3356 20.3382 84.9904 24.1618L76.335 35.0553C73.0974 33.6656 68.5591 34.987 66.1392 38.0018Z" fill="#2D2E8C"/>
<path d="M70.9539 22.807C74.9596 21.8881 78.9776 21.8349 82.7809 22.5032C76.3017 17.7076 67.5388 15.6572 58.8338 17.6506C44.0831 21.03 35.0973 34.7371 38.7602 48.2657C41.432 58.1227 50.0792 65.1585 60.2791 66.9507C55.7779 63.6207 52.3835 58.9656 50.8803 53.422C47.2133 39.8934 56.2033 26.1863 70.9539 22.807Z" fill="#A4DDEE"/>
</g>
<path d="M67.8943 77.2299C78.7754 77.2299 87.5963 69.1194 87.5963 59.1145C87.5963 49.1097 78.7754 40.9991 67.8943 40.9991C57.0133 40.9991 48.1924 49.1097 48.1924 59.1145C48.1924 69.1194 57.0133 77.2299 67.8943 77.2299Z" fill="#2D2E8C"/>
<mask id="mask7_331_12248" style="mask-type:luminance" maskUnits="userSpaceOnUse" x="48" y="40" width="40" height="38">
<path d="M67.8963 77.2301C78.7774 77.2301 87.5983 69.1195 87.5983 59.1147C87.5983 49.1098 78.7774 40.9993 67.8963 40.9993C57.0152 40.9993 48.1943 49.1098 48.1943 59.1147C48.1943 69.1195 57.0152 77.2301 67.8963 77.2301Z" fill="white"/>
</mask>
<g mask="url(#mask7_331_12248)">
<path d="M60.266 44.6793C61.9963 42.1847 64.2345 40.1685 66.7783 38.6687C60.3073 39.1509 54.1461 42.3138 50.3923 47.7397C44.0287 56.9322 46.9731 69.1281 56.9707 74.9792C64.2552 79.2433 67.8313 82.2884 74.6533 78.2712C70.1562 78.6054 70.945 74.3186 66.8485 71.9189C56.8509 66.0677 53.9066 53.8718 60.2702 44.6793H60.266Z" fill="#705FA9"/>
<path d="M61.7962 41.6146C64.4308 40.4528 67.21 39.887 69.952 39.8491C64.7075 37.3696 58.3108 37.0924 52.5832 39.6212C42.8829 43.9042 38.7947 54.6079 43.4528 63.5308C46.8473 70.0275 53.9459 73.7827 61.3006 73.6878C57.6584 71.9639 54.5736 69.177 52.6658 65.5205C48.0077 56.6013 52.0959 45.8938 61.7962 41.6109V41.6146Z" fill="#A4DDEE"/>
</g>
<path d="M75.4775 73.6759C81.4406 76.8578 90.3314 76.3832 98.7681 71.5496C111.008 64.5404 116.698 51.5813 111.66 43.0571L103.876 31.7041L92.1608 41.337L101.489 49.8233L72.4795 66.5034L75.4775 73.6797V73.6759Z" fill="#705FA9"/>
<path d="M75.4795 73.6752C81.4425 76.8571 90.3334 76.3825 98.77 71.5489C111.01 64.5397 116.7 51.5806 111.662 43.0563L103.878 31.7034L92.1628 41.3363L101.491 49.8226L72.4814 66.5027L75.4795 73.679V73.6752Z" fill="white"/>
<path d="M75.4775 73.6759C81.4406 76.8578 90.3314 76.3832 98.7681 71.5496C111.008 64.5404 116.698 51.5813 111.66 43.0571L103.876 31.7041L92.1608 41.337L101.489 49.8233L72.4795 66.5034L75.4775 73.6797V73.6759Z" fill="#1F1C6B"/>
<path d="M78.0701 51.4865L78.3468 51.2739C80.1597 53.9925 84.5411 54.0191 88.1131 51.2891C91.6893 48.5515 93.0066 44.1545 91.0781 41.5118L103.876 31.7004C110.111 39.5298 106.357 53.0699 95.2489 61.5257C87.5928 67.3541 78.8465 68.9185 72.4746 66.4998C77.8182 60.3828 78.3757 54.7671 78.066 51.4865H78.0701Z" fill="#2D2E8C"/>
<path d="M103.877 31.7004L91.0801 41.5118C91.4435 42.0092 91.6871 42.5636 91.8275 43.1635L104.864 33.1281C104.567 32.6345 104.241 32.1561 103.877 31.7004Z" fill="#705FA9"/>
<path d="M51.5904 67.0646L52.8664 66.7001C61.0387 64.3573 69.8057 68.1353 73.0804 75.4104L51.6936 128.116L29.9971 113.042L51.5945 67.0646H51.5904Z" fill="#1F1C6B"/>
<mask id="mask8_331_12248" style="mask-type:luminance" maskUnits="userSpaceOnUse" x="29" y="66" width="45" height="63">
<path d="M51.5865 67.0647L52.8625 66.7002C61.0348 64.3575 69.8018 68.1355 73.0765 75.4105L51.6897 128.116L29.9932 113.042L51.5906 67.0647H51.5865Z" fill="white"/>
</mask>
<g mask="url(#mask8_331_12248)">
<path d="M46.7654 68.5457L47.6037 70.1366C55.7678 67.3306 65.4102 68.557 68.6808 75.8321L46.8645 129.597L25.168 114.523L46.7654 68.5457Z" fill="#2D2E8C"/>
<path d="M62.8031 70.1163L44.3524 109.032L28.1895 104.555L40.4913 77.7027C41.6269 75.2536 46.6195 70.1923 49.4317 69.543C57.22 67.7546 61.6262 69.5809 62.8031 70.1163Z" fill="#705FA9"/>
<path d="M47.6047 69.8514L22.7119 115.427L30.6736 119.664L54.9222 68.7921C54.9594 68.6972 49.6942 69.2971 47.6047 69.8514Z" fill="#A4DDEE"/>
<path d="M66.66 91.9687C63.0467 85.8632 58.0665 82.6547 51.8598 82.4383C47.2306 82.2712 43.6214 83.9191 43.5842 83.9343L43.1465 83.1407C43.3034 83.0686 47.0117 81.3675 51.8928 81.5498C56.4105 81.7093 62.7865 83.5736 67.5066 91.5472L66.6559 91.9725L66.66 91.9687Z" fill="#1F1C6B"/>
<path d="M61.4105 102.164C52.2925 88.4114 38.8757 93.879 38.31 94.1182L37.9053 93.3095C38.0498 93.2487 52.6642 87.2571 62.2364 101.701L61.4105 102.164Z" fill="#1F1C6B"/>
<path d="M71.4892 82.1657C63.0608 68.0637 48.9957 73.8807 48.401 74.1351L47.9922 73.3301C48.145 73.2656 63.4697 66.8981 72.3357 81.7405L71.4851 82.1695L71.4892 82.1657Z" fill="#1F1C6B"/>
</g>
<path d="M41.7654 143.103C54.8907 143.103 65.5308 133.32 65.5308 121.252C65.5308 109.183 54.8907 99.4 41.7654 99.4C28.6401 99.4 18 109.183 18 121.252C18 133.32 28.6401 143.103 41.7654 143.103Z" fill="#1F1C6B"/>
<mask id="mask9_331_12248" style="mask-type:luminance" maskUnits="userSpaceOnUse" x="18" y="99" width="48" height="45">
<path d="M41.7654 143.103C54.8907 143.103 65.5308 133.32 65.5308 121.252C65.5308 109.183 54.8907 99.4 41.7654 99.4C28.6401 99.4 18 109.183 18 121.252C18 133.32 28.6401 143.103 41.7654 143.103Z" fill="white"/>
</mask>
<g mask="url(#mask9_331_12248)">
<path d="M38.4851 144.808C51.1109 144.808 61.3461 135.397 61.3461 123.788C61.3461 112.179 51.1109 102.768 38.4851 102.768C25.8593 102.768 15.624 112.179 15.624 123.788C15.624 135.397 25.8593 144.808 38.4851 144.808Z" fill="#2D2E8C"/>
<path d="M40.0187 141.193C26.1394 138.209 17.5169 125.44 20.7669 112.678C22.2906 106.682 26.1683 101.754 31.2848 98.5227C24.3141 101.705 18.8838 107.616 16.9759 115.127C13.5774 128.492 22.6004 141.858 37.1363 144.986C50.6729 147.899 64.2095 140.897 68.7519 129.126C63.4166 138.475 51.7176 143.711 40.0187 141.193Z" fill="#A4DDEE"/>
</g>
<path d="M60.9236 125.022L60.4487 124.426C59.4741 123.2 57.9916 122.41 56.3564 122.19C45.9995 120.796 36.0845 126.45 34.7383 137.427L61.0929 190.463L94.2076 167.913L60.9236 125.022Z" fill="#1F1C6B"/>
<mask id="mask10_331_12248" style="mask-type:luminance" maskUnits="userSpaceOnUse" x="34" y="121" width="61" height="70">
<path d="M60.9265 125.022L60.4516 124.426C59.4771 123.2 57.9946 122.41 56.3593 122.19C46.0024 120.796 36.0874 126.45 34.7412 137.427L61.0959 190.463L94.2105 167.913L60.9265 125.022Z" fill="white"/>
</mask>
<g mask="url(#mask10_331_12248)">
<path d="M60.8797 130.311L60.2727 129.548C59.0173 127.976 57.1177 126.958 55.0199 126.677C41.7229 124.889 32.3406 136.781 32.8692 149.353L27.2695 146.236L61.0986 214.315L103.604 185.371L60.8797 130.315V130.311Z" fill="#2D2E8C"/>
<path d="M34.6611 140.32L55.8786 173.901L62.3992 166.77C62.3992 166.77 41.6153 130.539 41.6153 130.049C41.6153 130.049 35.3549 134.431 34.6611 140.32Z" fill="#705FA9"/>
<path d="M33.7725 142.428L51.7937 174.376L54.7133 170.777C54.7133 170.777 36.9563 135.271 36.9563 134.781C36.9563 134.781 34.6025 137.986 33.7725 142.428Z" fill="#A4DDEE"/>
<path d="M47.7801 164.624L46.9336 164.438C46.9831 164.248 52.1161 145.681 78.095 147.12L78.0454 147.918C52.7851 146.57 47.8256 164.446 47.7801 164.628V164.624Z" fill="#1F1C6B"/>
<path d="M42.5126 153.15L41.666 152.964C41.7114 152.793 46.448 135.654 70.4075 136.986L70.358 137.784C47.117 136.512 42.558 152.987 42.5126 153.154V153.15Z" fill="#1F1C6B"/>
<path d="M37.6708 143.262L36.8242 143.076C36.8655 142.913 41.2717 126.965 63.567 128.207L63.5175 129.004C52.248 128.393 45.8266 132.293 42.4239 135.676C38.7279 139.347 37.679 143.224 37.6708 143.262Z" fill="#1F1C6B"/>
</g>
<path d="M78.7132 208.776C95.2755 208.776 108.702 196.431 108.702 181.202C108.702 165.974 95.2755 153.629 78.7132 153.629C62.151 153.629 48.7246 165.974 48.7246 181.202C48.7246 196.431 62.151 208.776 78.7132 208.776Z" fill="#1F1C6B"/>
<mask id="mask11_331_12248" style="mask-type:luminance" maskUnits="userSpaceOnUse" x="48" y="153" width="61" height="56">
<path d="M78.7201 208.776C95.2823 208.776 108.709 196.431 108.709 181.202C108.709 165.974 95.2823 153.629 78.7201 153.629C62.1578 153.629 48.7314 165.974 48.7314 181.202C48.7314 196.431 62.1578 208.776 78.7201 208.776Z" fill="white"/>
</mask>
<g mask="url(#mask11_331_12248)">
<path d="M85.9869 209.031C101.354 209.031 113.812 197.577 113.812 183.447C113.812 169.317 101.354 157.863 85.9869 157.863C70.6197 157.863 58.1621 169.317 58.1621 183.447C58.1621 197.577 70.6197 209.031 85.9869 209.031Z" fill="#2D2E8C"/>
</g>
<path d="M259.608 67.3877L252.575 53.9654C255.643 53.0996 256.544 49.4811 254.648 45.8892C252.761 42.32 248.768 40.0456 245.683 40.805L238.758 28.0737L247.062 20.6469L250.015 21.3227L269.011 32.2049L270.076 42.3504L270.993 50.2519L259.612 67.3877H259.608Z" fill="#1F1C6B"/>
<mask id="mask12_331_12248" style="mask-type:luminance" maskUnits="userSpaceOnUse" x="238" y="20" width="33" height="48">
<path d="M259.615 67.3874L252.582 53.9651C255.65 53.0994 256.551 49.4809 254.655 45.8889C252.768 42.3198 248.775 40.0454 245.69 40.8048L238.765 28.0735L247.069 20.6466L250.022 21.3225L269.018 32.2046L270.083 42.3502L271 50.2517L259.619 67.3874H259.615Z" fill="white"/>
</mask>
<g mask="url(#mask12_331_12248)">
<path d="M243.361 20.2691L234.086 26.7847L234.487 29.8071L237.86 30.9386L247.85 21.8524L247.395 18.3098L243.361 20.2691Z" fill="#705FA9"/>
</g>
<path d="M264.448 37.2702C266.682 40.6912 266.129 44.3705 263.155 45.483L271.443 58.2864C280.115 54.6755 281.395 43.6339 274.755 33.6213C268.222 23.7757 256.036 17.9853 247.079 20.647L255.033 32.9302C258.035 31.924 262.23 33.8681 264.452 37.2702H264.448Z" fill="#2D2E8C"/>
<path d="M264.448 37.2702C266.682 40.6912 266.129 44.3705 263.155 45.483L271.443 58.2864C280.115 54.6755 281.395 43.6339 274.755 33.6213C268.222 23.7757 256.036 17.9853 247.079 20.647L255.033 32.9302C258.035 31.924 262.23 33.8681 264.452 37.2702H264.448Z" fill="#2D2E8C"/>
<mask id="mask13_331_12248" style="mask-type:luminance" maskUnits="userSpaceOnUse" x="247" y="20" width="32" height="39">
<path d="M264.451 37.2702C266.685 40.6912 266.132 44.3705 263.158 45.483L271.446 58.2864C280.118 54.6755 281.398 43.6339 274.758 33.6213C268.225 23.7757 256.039 17.9853 247.082 20.647L255.035 32.9302C258.038 31.924 262.233 33.8681 264.455 37.2702H264.451Z" fill="white"/>
</mask>
<g mask="url(#mask13_331_12248)">
<path d="M259.857 38.004C262.289 41.0378 261.711 44.6981 258.507 46.1903L267.526 57.5433C276.871 52.835 278.192 41.8883 270.966 33.0337C263.859 24.3234 250.661 20.3404 241.006 24.164L249.661 35.0575C252.899 33.6678 257.437 34.9892 259.857 38.004Z" fill="#2D2E8C"/>
<path d="M255.902 22.9334C251.817 21.8209 247.68 21.5931 243.724 22.1246C250.641 17.4544 259.775 15.7077 268.649 18.1264C283.689 22.2272 292.27 36.7354 287.823 50.5299C284.581 60.5767 275.319 67.4682 264.714 68.8883C269.517 65.6457 273.25 60.9906 275.075 55.3369C279.527 41.5424 270.941 27.0341 255.902 22.9334Z" fill="#FDCF59"/>
</g>
<path d="M258.1 77.2299C268.982 77.2299 277.802 69.1194 277.802 59.1145C277.802 49.1097 268.982 40.9991 258.1 40.9991C247.219 40.9991 238.398 49.1097 238.398 59.1145C238.398 69.1194 247.219 77.2299 258.1 77.2299Z" fill="#2D2E8C"/>
<mask id="mask14_331_12248" style="mask-type:luminance" maskUnits="userSpaceOnUse" x="238" y="40" width="40" height="38">
<path d="M258.096 77.2299C268.977 77.2299 277.797 69.1194 277.797 59.1145C277.797 49.1097 268.977 40.9991 258.096 40.9991C247.214 40.9991 238.394 49.1097 238.394 59.1145C238.394 69.1194 247.214 77.2299 258.096 77.2299Z" fill="white"/>
</mask>
<g mask="url(#mask14_331_12248)">
<path d="M265.734 44.6793C264.004 42.1847 261.765 40.1685 259.222 38.6687C265.693 39.1509 271.854 42.3138 275.608 47.7397C281.971 56.9322 279.027 69.1281 269.029 74.9792C261.745 79.2433 258.169 82.2884 251.347 78.2712C255.844 78.6054 255.055 74.3186 259.151 71.9189C269.149 66.0677 272.093 53.8718 265.73 44.6793H265.734Z" fill="#705FA9"/>
<path d="M264.198 41.6148C261.563 40.4529 258.784 39.8871 256.042 39.8492C261.286 37.3697 267.683 37.0926 273.411 39.6214C283.111 43.9044 287.199 54.608 282.541 63.531C279.147 70.0276 272.048 73.7828 264.693 73.6879C268.336 71.9641 271.42 69.1771 273.328 65.5206C277.986 56.6015 273.898 45.894 264.198 41.611V41.6148Z" fill="#FDCF59"/>
</g>
<path d="M250.517 73.6759C244.554 76.8578 235.663 76.3832 227.227 71.5496C214.987 64.5404 209.296 51.5813 214.335 43.0571L222.119 31.7041L233.834 41.337L224.506 49.8233L253.515 66.5034L250.517 73.6797V73.6759Z" fill="#705FA9"/>
<path d="M250.515 73.6758C244.552 76.8577 235.662 76.3831 227.225 71.5495C214.985 64.5403 209.295 51.5812 214.333 43.057L222.117 31.704L233.832 41.3369L224.504 49.8232L253.513 66.5033L250.515 73.6796V73.6758Z" fill="white"/>
<path d="M250.517 73.6759C244.554 76.8578 235.663 76.3832 227.227 71.5496C214.987 64.5404 209.296 51.5813 214.335 43.0571L222.119 31.7041L233.834 41.337L224.506 49.8233L253.515 66.5034L250.517 73.6797V73.6759Z" fill="#1F1C6B"/>
<path d="M247.921 51.4865L247.644 51.2739C245.831 53.9925 241.45 54.0191 237.878 51.2891C234.301 48.5515 232.984 44.1545 234.913 41.5118L222.115 31.7004C215.88 39.5298 219.633 53.0699 230.742 61.5257C238.398 67.3541 247.144 68.9185 253.516 66.4998C248.172 60.3828 247.615 54.7671 247.925 51.4865H247.921Z" fill="#2D2E8C"/>
<path d="M222.111 31.7004L234.908 41.5118C234.545 42.0092 234.301 42.5636 234.161 43.1635L221.124 33.1281C221.421 32.6345 221.748 32.1561 222.111 31.7004Z" fill="#705FA9"/>
<path d="M274.403 67.0646L273.127 66.7001C264.955 64.3573 256.188 68.1353 252.913 75.4104L274.3 128.116L295.996 113.042L274.399 67.0646H274.403Z" fill="#1F1C6B"/>
<mask id="mask15_331_12248" style="mask-type:luminance" maskUnits="userSpaceOnUse" x="252" y="66" width="44" height="63">
<path d="M274.4 67.0646L273.124 66.7001C264.952 64.3573 256.185 68.1353 252.91 75.4104L274.297 128.116L295.994 113.042L274.396 67.0646H274.4Z" fill="white"/>
</mask>
<g mask="url(#mask15_331_12248)">
<path d="M279.226 68.5455L278.388 70.1365C270.224 67.3305 260.581 68.5569 257.311 75.8319L279.127 129.597L300.823 114.523L279.226 68.5455Z" fill="#2D2E8C"/>
<path d="M263.197 70.1162L281.648 109.031L297.811 104.555L285.509 77.7026C284.373 75.2535 279.381 70.1921 276.569 69.5429C268.78 67.7545 264.374 69.5808 263.197 70.1162Z" fill="#705FA9"/>
<path d="M278.384 69.8506L303.277 115.426L295.315 119.663L271.067 68.7912C271.029 68.6963 276.295 69.2962 278.384 69.8506Z" fill="#FDCF59"/>
<path d="M259.34 91.9686C262.953 85.863 267.933 82.6546 274.14 82.4382C278.769 82.2711 282.378 83.919 282.416 83.9342L282.853 83.1406C282.696 83.0685 278.988 81.3674 274.107 81.5497C269.589 81.7091 263.213 83.5735 258.493 91.5471L259.344 91.9724L259.34 91.9686Z" fill="#1F1C6B"/>
<path d="M264.59 102.164C273.708 88.4111 287.124 93.8788 287.69 94.118L288.095 93.3092C287.95 93.2485 273.336 87.2568 263.764 101.701L264.59 102.164Z" fill="#1F1C6B"/>
<path d="M254.506 82.1649C262.934 68.0629 276.999 73.8799 277.594 74.1342L278.003 73.3293C277.85 73.2647 262.525 66.8972 253.659 81.7396L254.51 82.1687L254.506 82.1649Z" fill="#1F1C6B"/>
</g>
<path d="M284.228 143.103C297.354 143.103 307.994 133.32 307.994 121.252C307.994 109.183 297.354 99.4 284.228 99.4C271.103 99.4 260.463 109.183 260.463 121.252C260.463 133.32 271.103 143.103 284.228 143.103Z" fill="#1F1C6B"/>
<mask id="mask16_331_12248" style="mask-type:luminance" maskUnits="userSpaceOnUse" x="260" y="99" width="48" height="45">
<path d="M284.234 143.103C297.359 143.103 308 133.32 308 121.252C308 109.183 297.359 99.4 284.234 99.4C271.109 99.4 260.469 109.183 260.469 121.252C260.469 133.32 271.109 143.103 284.234 143.103Z" fill="white"/>
</mask>
<g mask="url(#mask16_331_12248)">
<path d="M287.509 144.809C300.134 144.809 310.37 135.398 310.37 123.789C310.37 112.18 300.134 102.769 287.509 102.769C274.883 102.769 264.647 112.18 264.647 123.789C264.647 135.398 274.883 144.809 287.509 144.809Z" fill="#2D2E8C"/>
<path d="M285.976 141.194C299.856 138.209 308.478 125.44 305.228 112.678C303.704 106.683 299.827 101.755 294.71 98.5233C301.681 101.705 307.111 107.617 309.019 115.128C312.418 128.493 303.395 141.858 288.859 144.987C275.322 147.899 261.786 140.898 257.243 129.127C262.579 138.475 274.277 143.711 285.976 141.194Z" fill="#FDCF59"/>
</g>
<path d="M265.067 125.021L265.542 124.425C266.517 123.199 267.999 122.409 269.634 122.189C279.991 120.795 289.906 126.449 291.253 137.426L264.898 190.462L231.783 167.912L265.067 125.021Z" fill="#1F1C6B"/>
<mask id="mask17_331_12248" style="mask-type:luminance" maskUnits="userSpaceOnUse" x="231" y="121" width="61" height="70">
<path d="M265.073 125.022L265.548 124.426C266.523 123.2 268.005 122.41 269.64 122.19C279.997 120.796 289.912 126.45 291.258 137.427L264.904 190.463L231.789 167.913L265.073 125.022Z" fill="white"/>
</mask>
<g mask="url(#mask17_331_12248)">
<path d="M265.115 130.311L265.722 129.548C266.977 127.976 268.877 126.958 270.974 126.677C284.272 124.889 293.654 136.781 293.125 149.353L298.725 146.236L264.896 214.315L222.391 185.371L265.115 130.315V130.311Z" fill="#2D2E8C"/>
<path d="M291.334 140.32L270.116 173.901L263.596 166.77C263.596 166.77 284.38 130.539 284.38 130.049C284.38 130.049 290.64 134.431 291.334 140.32Z" fill="#705FA9"/>
<path d="M292.24 142.428L274.218 174.376L271.299 170.777C271.299 170.777 289.056 135.271 289.056 134.781C289.056 134.781 291.41 137.986 292.24 142.428Z" fill="#FDCF59"/>
<path d="M278.212 164.624L279.059 164.438C279.009 164.248 273.876 145.681 247.897 147.12L247.947 147.918C273.207 146.57 278.167 164.446 278.212 164.628V164.624Z" fill="#1F1C6B"/>
<path d="M283.491 153.151L284.337 152.965C284.292 152.794 279.555 135.654 255.596 136.987L255.645 137.784C278.886 136.512 283.445 152.987 283.491 153.155V153.151Z" fill="#1F1C6B"/>
<path d="M288.334 143.261L289.18 143.075C289.139 142.912 284.733 126.964 262.438 128.206L262.487 129.003C273.757 128.392 280.178 132.292 283.581 135.675C287.277 139.346 288.325 143.223 288.334 143.261Z" fill="#1F1C6B"/>
</g>
<path d="M247.278 208.776C263.84 208.776 277.266 196.431 277.266 181.202C277.266 165.974 263.84 153.629 247.278 153.629C230.715 153.629 217.289 165.974 217.289 181.202C217.289 196.431 230.715 208.776 247.278 208.776Z" fill="#1F1C6B"/>
<mask id="mask18_331_12248" style="mask-type:luminance" maskUnits="userSpaceOnUse" x="217" y="153" width="61" height="56">
<path d="M247.289 208.777C263.852 208.777 277.278 196.432 277.278 181.203C277.278 165.975 263.852 153.63 247.289 153.63C230.727 153.63 217.301 165.975 217.301 181.203C217.301 196.432 230.727 208.777 247.289 208.777Z" fill="white"/>
</mask>
<g mask="url(#mask18_331_12248)">
<path d="M240.01 209.031C255.377 209.031 267.835 197.577 267.835 183.447C267.835 169.317 255.377 157.863 240.01 157.863C224.643 157.863 212.186 169.317 212.186 183.447C212.186 197.577 224.643 209.031 240.01 209.031Z" fill="#2D2E8C"/>
</g>
<path d="M162.188 192.203C179.859 192.203 194.184 186.44 194.184 179.331C194.184 172.222 179.859 166.459 162.188 166.459C144.517 166.459 130.192 172.222 130.192 179.331C130.192 186.44 144.517 192.203 162.188 192.203Z" fill="#2D2E8C"/>
<path d="M265.225 253.603L60.4994 253.128C55.4159 253.117 52.5376 254.89 54.0325 257.036L72.9705 298.218C73.7593 299.349 77.2859 300.257 80.8662 300.264L244.523 300.549C248.096 300.557 251.622 299.664 252.419 298.537L271.642 257.537C273.149 255.403 270.296 253.618 265.229 253.607L265.225 253.603Z" fill="#1F1C6B"/>
<path d="M266.685 260.252L59.0237 260.746C53.87 260.757 50.9422 257.317 52.4495 253.163L82.6198 173.453C83.4168 171.262 86.993 169.512 90.6228 169.504L234.433 169.257C238.055 169.25 241.635 170.989 242.449 173.176L273.177 252.654C274.713 256.793 271.822 260.244 266.685 260.256V260.252Z" fill="#1F1C6B"/>
<path d="M230.88 251.705H94.7588C91.3808 251.712 88.7462 249.616 84.3193 244.923L106.392 191.173C106.862 189.556 109.282 188.261 111.801 188.257L213.379 188.079C215.894 188.075 218.318 189.358 218.801 190.972L241.559 245.132C238.4 249.343 234.275 251.705 230.876 251.705H230.88Z" fill="#705FA9"/>
<path d="M240.246 246.647L87.2021 246.996C83.5269 247.004 82.862 244.539 83.754 241.555L101.717 181.392C102.234 179.656 104.86 178.267 107.59 178.263L217.555 178.069C220.276 178.066 222.907 179.444 223.439 181.175L241.82 241.19C242.732 244.167 243.909 246.639 240.246 246.647Z" fill="#2D2E8C"/>
<path d="M166.711 186.461C166.765 188.694 163.99 190.543 160.513 190.551C157.036 190.558 154.285 188.717 154.364 186.484C154.442 184.301 157.217 182.558 160.562 182.551C163.907 182.543 166.658 184.278 166.711 186.461Z" fill="#1F1C6B"/>
<path d="M166.924 197.586C166.982 200.066 164.058 202.124 160.391 202.131C156.724 202.139 153.825 200.092 153.916 197.609C154.003 195.183 156.931 193.25 160.449 193.242C163.972 193.235 166.87 195.156 166.924 197.582V197.586Z" fill="#1F1C6B"/>
<path d="M222.526 197.499C225.115 206.768 215.977 214.908 201.912 214.939C187.842 214.969 175.929 206.87 175.351 197.59C174.818 189.043 184.254 182.573 196.382 182.551C208.511 182.528 220.139 188.96 222.522 197.499H222.526Z" fill="#705FA9"/>
<path d="M222.526 197.499C225.115 206.768 215.977 214.908 201.912 214.939C187.842 214.969 175.929 206.87 175.351 197.59C174.818 189.043 184.254 182.573 196.382 182.551C208.511 182.528 220.139 188.96 222.522 197.499H222.526Z" fill="#705FA9"/>
<mask id="mask19_331_12248" style="mask-type:luminance" maskUnits="userSpaceOnUse" x="175" y="182" width="48" height="33">
<path d="M222.535 197.501C225.124 206.769 215.986 214.91 201.92 214.94C187.851 214.97 175.938 206.871 175.359 197.592C174.827 189.045 184.263 182.575 196.391 182.552C208.519 182.529 220.148 188.961 222.531 197.501H222.535Z" fill="white"/>
</mask>
<g mask="url(#mask19_331_12248)">
<path d="M222.658 199.775C225.252 209.085 216.101 217.256 202.002 217.286C187.904 217.317 175.966 209.184 175.388 199.866C174.855 191.281 184.307 184.784 196.465 184.765C208.618 184.742 220.271 191.201 222.662 199.775H222.658Z" fill="#1F1C6B"/>
</g>
<path d="M124.427 241.342L114.228 241.383L125.257 182.572L133.157 182.549L124.427 241.342Z" fill="#1F1C6B"/>
<path d="M140.032 241.343L129.836 241.385L137.352 182.573L145.251 182.551L140.032 241.343Z" fill="#1F1C6B"/>
<path d="M112.004 207.705C111.422 209.205 109.271 210.302 107.21 210.15C105.149 209.994 103.989 208.65 104.604 207.158C105.215 205.681 107.35 204.61 109.374 204.762C111.401 204.91 112.582 206.224 112.004 207.708V207.705Z" fill="#E9509C"/>
<path d="M116.831 187.794C116.327 189.043 114.39 189.958 112.507 189.829C110.624 189.7 109.534 188.58 110.067 187.338C110.595 186.104 112.52 185.216 114.37 185.341C116.224 185.466 117.326 186.56 116.831 187.798V187.794Z" fill="#E9509C"/>
<path d="M106.155 231.835C105.465 233.669 103.053 235.017 100.778 234.827C98.5027 234.637 97.2597 232.989 97.9907 231.163C98.7133 229.356 101.104 228.053 103.334 228.236C105.568 228.418 106.836 230.02 106.155 231.835Z" fill="#E9509C"/>
<path d="M142.435 121.309C145.4 121.309 147.803 119.869 147.803 118.093C147.803 116.316 145.4 114.877 142.435 114.877C139.47 114.877 137.066 116.316 137.066 118.093C137.066 119.869 139.47 121.309 142.435 121.309Z" fill="#EF77A8"/>
<path d="M57.6365 253.417L86.3904 173.175C86.9644 171.509 89.0498 170.096 91.5275 169.5H90.6231C86.9933 169.508 83.4171 171.258 82.6201 173.449L52.4498 253.159C50.9425 257.313 53.8662 260.757 59.024 260.741L61.4935 260.734C58.132 259.8 56.4555 256.846 57.6365 253.409V253.417Z" fill="#A4DDEE"/>
<path d="M273.177 252.65L242.449 173.171C241.64 170.984 238.055 169.249 234.434 169.253H233.616C236.065 169.849 238.126 171.243 238.708 172.89L267.99 252.897C269.204 256.356 267.515 259.333 264.104 260.255L266.685 260.248C271.823 260.236 274.713 256.785 273.177 252.646V252.65Z" fill="#FDCF59"/>
<path d="M293.192 295.914H32.2266V361.366H293.192V295.914Z" fill="#1F1C6B"/>
</g>
</svg>
