<svg width="326" height="303" viewBox="0 0 326 303" fill="none" xmlns="http://www.w3.org/2000/svg">
<mask id="mask0_331_12248" style="mask-type:alpha" maskUnits="userSpaceOnUse" x="0" y="0" width="326" height="303">
<path d="M282.999 182.802C282.999 249.185 229.275 303 163.002 303C96.7286 303 43.0036 249.185 43.0036 182.802C43.0036 177.886 -0.566915 120.452 0.00559297 115.691C7.1642 56.156 43.0036 0 161.503 0C259.501 0 320.917 32.959 325.999 94.656C326.271 97.9589 282.999 179.429 282.999 182.802Z" fill="#E9509C"/>
</mask>
<g mask="url(#mask0_331_12248)">
<path d="M84.923 201.365C98.5409 201.365 109.58 191.215 109.58 178.693C109.58 166.172 98.5409 156.021 84.923 156.021C71.3051 156.021 60.2656 166.172 60.2656 178.693C60.2656 191.215 71.3051 201.365 84.923 201.365Z" fill="#E9509C"/>
<path d="M114.722 124.308C114.665 124.308 114.611 124.308 114.553 124.297C113.872 124.213 113.393 123.632 113.488 123.006L116.316 103.926C116.411 103.299 117.039 102.863 117.72 102.946C118.402 103.03 118.881 103.611 118.786 104.237L115.957 123.317C115.87 123.89 115.338 124.308 114.722 124.308Z" fill="#A4DDEE"/>
<path d="M123.65 101.515C123.522 104.325 120.858 106.615 117.699 106.615C114.54 106.615 112.124 104.321 112.298 101.515C112.467 98.7285 115.131 96.4845 118.244 96.4845C121.358 96.4845 123.778 98.7285 123.65 101.515Z" fill="#A4DDEE"/>
<path d="M202.165 101.515C202.293 104.325 204.957 106.615 208.116 106.615C211.271 106.615 213.691 104.321 213.517 101.515C213.348 98.7285 210.684 96.4845 207.571 96.4845C204.457 96.4845 202.037 98.7285 202.165 101.515Z" fill="#FDCF59"/>
<path d="M211.299 124.308C211.357 124.308 211.411 124.308 211.468 124.297C212.15 124.213 212.629 123.632 212.534 123.006L209.705 103.926C209.61 103.299 208.982 102.863 208.301 102.946C207.62 103.03 207.141 103.611 207.236 104.237L210.064 123.317C210.151 123.89 210.684 124.308 211.299 124.308Z" fill="#FDCF59"/>
<path d="M125.329 101.104C125.192 104.074 122.376 106.496 119.043 106.496C115.711 106.496 113.151 104.074 113.332 101.104C113.514 98.158 116.326 95.7849 119.617 95.7849C122.909 95.7849 125.465 98.158 125.329 101.104Z" fill="#1F1C6B"/>
<path d="M121.125 104.42C117.76 104.42 115.137 102.112 115.018 99.1842C114.654 99.7727 114.423 100.433 114.378 101.14C114.229 103.581 116.331 105.575 119.077 105.575C120.464 105.575 121.74 105.066 122.678 104.246C122.178 104.356 121.658 104.42 121.125 104.42Z" fill="#705FA9"/>
<path d="M115.881 124.308C115.823 124.308 115.769 124.308 115.711 124.297C115.03 124.213 114.551 123.632 114.646 123.006L117.475 103.926C117.569 103.299 118.197 102.863 118.879 102.946C119.56 103.03 120.039 103.611 119.944 104.237L117.115 123.317C117.029 123.89 116.496 124.308 115.881 124.308Z" fill="#1F1C6B"/>
<path d="M121.285 121.783L114.595 121.799C111.321 121.821 108.74 125.368 108.162 128.329L104.267 144.318C102.706 150.12 108.471 155.816 115.962 155.816H121.141L121.289 121.783H121.285Z" fill="#1F1C6B"/>
<mask id="mask1_331_12248" style="mask-type:luminance" maskUnits="userSpaceOnUse" x="104" y="121" width="18" height="35">
<path d="M121.288 121.783L114.598 121.799C111.324 121.821 108.743 125.368 108.164 128.329L104.27 144.318C102.709 150.12 108.474 155.816 115.965 155.816H121.144L121.292 121.783H121.288Z" fill="white"/>
</mask>
<g mask="url(#mask1_331_12248)">
<path d="M106.347 146.498C106.347 146.498 106.347 147.121 106.541 147.831C106.805 148.792 107.747 149.471 108.829 149.471H117.69V146.498C117.69 146.498 106.347 146.206 106.347 146.498Z" fill="#705FA9"/>
</g>
<path d="M123.401 104.526L119.114 105.939L119.882 103.224H121.58L123.401 104.526Z" fill="#1F1C6B"/>
<path d="M200.698 101.104C200.834 104.074 203.65 106.496 206.983 106.496C210.315 106.496 212.876 104.074 212.694 101.104C212.512 98.158 209.7 95.7849 206.409 95.7849C203.117 95.7849 200.561 98.158 200.698 101.104Z" fill="#1F1C6B"/>
<path d="M211.651 101.14C211.61 100.437 211.378 99.7727 211.011 99.1842C210.887 102.112 208.269 104.42 204.903 104.42C204.371 104.42 203.85 104.356 203.351 104.246C204.288 105.066 205.564 105.575 206.952 105.575C209.698 105.575 211.8 103.581 211.651 101.14Z" fill="#705FA9"/>
<path d="M210.145 124.308C209.529 124.308 208.997 123.891 208.91 123.317L206.081 104.237C205.986 103.611 206.465 103.034 207.147 102.946C207.828 102.855 208.456 103.3 208.551 103.926L211.38 123.006C211.474 123.632 210.995 124.21 210.314 124.297C210.256 124.304 210.198 124.308 210.145 124.308Z" fill="#1F1C6B"/>
<path d="M204.739 121.783L211.429 121.799C214.704 121.821 217.285 125.368 217.863 128.329L221.757 144.318C223.318 150.12 217.553 155.816 210.062 155.816H204.884L204.735 121.783H204.739Z" fill="#1F1C6B"/>
<mask id="mask2_331_12248" style="mask-type:luminance" maskUnits="userSpaceOnUse" x="204" y="121" width="19" height="35">
<path d="M204.738 121.783L211.427 121.799C214.702 121.821 217.283 125.368 217.861 128.329L221.755 144.318C223.316 150.12 217.551 155.816 210.06 155.816H204.882L204.733 121.783H204.738Z" fill="white"/>
</mask>
<g mask="url(#mask2_331_12248)">
<path d="M219.688 146.497C219.688 146.497 219.688 147.12 219.493 147.83C219.229 148.791 218.288 149.471 217.206 149.471H208.344V146.497C208.344 146.497 219.688 146.205 219.688 146.497Z" fill="#705FA9"/>
</g>
<path d="M202.625 104.526L206.911 105.939L206.143 103.224H204.446L202.625 104.526Z" fill="#1F1C6B"/>
<path d="M196.672 178.894L127.866 180.269C123.765 180.269 120.821 177.558 121.284 174.281L116.056 154.271C116.444 151.689 128.589 131.067 132.053 131.071L193.93 131.094C197.399 131.094 209.581 151.731 209.973 154.313L203.246 172.933C203.705 176.198 200.765 178.898 196.668 178.894H196.672Z" fill="#1F1C6B"/>
<path d="M191.545 113.228L134.409 113.179L134.843 109.101C135.045 107.218 137.461 105.71 140.244 105.714L185.714 105.752C188.498 105.752 190.918 107.263 191.116 109.15L191.545 113.228Z" fill="#1F1C6B"/>
<path d="M202.853 160.672L123.178 160.638C118.714 160.638 115.526 157.752 116.051 154.27L121.828 115.906C122.224 113.286 125.594 111.197 129.36 111.201L196.609 111.228C200.38 111.228 203.749 113.32 204.15 115.94L209.968 154.312C210.497 157.794 207.313 160.676 202.849 160.672H202.853Z" fill="#2D2E8C"/>
<mask id="mask3_331_12248" style="mask-type:luminance" maskUnits="userSpaceOnUse" x="116" y="111" width="95" height="50">
<path d="M202.861 160.672L123.186 160.638C118.722 160.638 115.534 157.752 116.058 154.27L121.836 115.906C122.232 113.286 125.602 111.197 129.368 111.201L196.617 111.228C200.387 111.228 203.757 113.32 204.158 115.94L209.976 154.312C210.505 157.794 207.321 160.676 202.857 160.672H202.861Z" fill="white"/>
</mask>
<g mask="url(#mask3_331_12248)">
<path d="M217.758 157.077H110.291V170.977H217.758V157.077Z" fill="#705FA9"/>
</g>
<path d="M195.264 148.993L130.777 148.967L132.21 136.85L194.021 136.877L195.264 148.993Z" fill="#1F1C6B"/>
<mask id="mask4_331_12248" style="mask-type:luminance" maskUnits="userSpaceOnUse" x="130" y="136" width="66" height="13">
<path d="M195.27 148.993L130.783 148.967L132.216 136.85L194.027 136.877L195.27 148.993Z" fill="white"/>
</mask>
<g mask="url(#mask4_331_12248)">
<path d="M194.143 136.679H131.898L131.861 139.329H194.18L194.143 136.679Z" fill="#705FA9"/>
</g>
<path d="M166.525 133.09H159.447L158.365 129.403H167.64L166.525 133.09Z" fill="#705FA9"/>
<path d="M154.32 124.166C154.547 129.36 149.018 133.802 141.96 133.802C134.903 133.802 129.605 129.36 130.096 124.166C130.559 119.26 136.071 115.482 142.431 115.482C148.79 115.482 154.109 119.26 154.32 124.166Z" fill="#1F1C6B"/>
<path d="M195.547 124.164C196.034 129.359 190.732 133.801 183.675 133.801C176.617 133.801 171.092 129.359 171.323 124.164C171.538 119.259 176.861 115.481 183.221 115.481C189.58 115.481 195.089 119.259 195.551 124.164H195.547Z" fill="#1F1C6B"/>
<path d="M152.626 123.557C152.564 128.322 147.794 131.849 141.996 131.849C136.194 131.849 131.652 128.246 131.829 123.557C132.032 118.317 136.793 114.117 142.471 114.117C148.149 114.117 152.696 118.317 152.63 123.557H152.626Z" fill="#E9509C"/>
<path d="M193.823 123.557C194.005 128.322 189.413 131.849 183.611 131.849C177.809 131.849 173.085 128.246 173.027 123.557C172.965 118.317 177.512 114.117 183.19 114.117C188.868 114.117 193.625 118.317 193.823 123.557Z" fill="#E9509C"/>
<path d="M165.546 106.301L160.405 106.297L158.365 129.405L167.64 129.409L165.546 106.301Z" fill="#1F1C6B"/>
<path d="M66.3802 67.3877L73.4128 53.9654C70.3446 53.0996 69.4443 49.4811 71.3398 45.8892C73.227 42.32 77.2202 40.0456 80.305 40.805L87.2302 28.0737L78.9257 20.6469L75.9731 21.3227L56.9773 32.2049L55.9119 42.3504L54.9951 50.2519L66.3761 67.3877H66.3802Z" fill="#1F1C6B"/>
<mask id="mask5_331_12248" style="mask-type:luminance" maskUnits="userSpaceOnUse" x="55" y="20" width="33" height="48">
<path d="M66.388 67.3877L73.4206 53.9654C70.3524 53.0996 69.4521 49.4811 71.3476 45.8892C73.2348 42.32 77.228 40.0456 80.3128 40.805L87.238 28.0737L78.9335 20.6469L75.9809 21.3227L56.9851 32.2049L55.9197 42.3504L55.0029 50.2519L66.3839 67.3877H66.388Z" fill="white"/>
</mask>
<g mask="url(#mask5_331_12248)">
<path d="M82.3739 21.3268L90.6701 27.8956L87.4821 30.4586L78.0049 22.0559L70.7988 22.6292L78.5706 19.1018L82.3739 21.3268Z" fill="#705FA9"/>
</g>
<path d="M61.5419 37.2702C59.3078 40.6912 59.8612 44.3705 62.8344 45.483L54.5465 58.2864C45.8745 54.6755 44.5943 43.6339 51.2346 33.6213C57.7675 23.7757 69.9537 17.9853 78.9106 20.647L70.9572 32.9302C67.955 31.924 63.7594 33.8681 61.5377 37.2702H61.5419Z" fill="#2D2E8C"/>
<path d="M61.5419 37.2702C59.3078 40.6912 59.8612 44.3705 62.8344 45.483L54.5465 58.2864C45.8745 54.6755 44.5943 43.6339 51.2346 33.6213C57.7675 23.7757 69.9537 17.9853 78.9106 20.647L70.9572 32.9302C67.955 31.924 63.7594 33.8681 61.5377 37.2702H61.5419Z" fill="#2D2E8C"/>
<mask id="mask6_331_12248" style="mask-type:luminance" maskUnits="userSpaceOnUse" x="47" y="20" width="32" height="39">
<path d="M61.5497 37.2702C59.3156 40.6912 59.869 44.3705 62.8422 45.483L54.5543 58.2864C45.8823 54.6755 44.6021 43.6339 51.2424 33.6213C57.7753 23.7757 69.9615 17.9853 78.9185 20.647L70.965 32.9302C67.9628 31.924 63.7672 33.8681 61.5456 37.2702H61.5497Z" fill="white"/>
</mask>
<g mask="url(#mask6_331_12248)">
<path d="M66.1382 38.0018C63.7059 41.0356 64.284 44.6959 67.4885 46.1881L58.4697 57.5411C49.1245 52.8328 47.8031 41.8861 55.0298 33.0315C62.1367 24.3213 75.3346 20.3382 84.9895 24.1618L76.334 35.0553C73.0964 33.6656 68.5581 34.987 66.1382 38.0018Z" fill="#2D2E8C"/>
<path d="M70.953 22.807C74.9586 21.8881 78.9766 21.8349 82.7799 22.5032C76.3007 17.7076 67.5378 15.6572 58.8328 17.6506C44.0821 21.03 35.0963 34.7371 38.7592 48.2657C41.431 58.1227 50.0782 65.1585 60.2781 66.9507C55.777 63.6207 52.3825 58.9656 50.8793 53.422C47.2123 39.8934 56.2023 26.1863 70.953 22.807Z" fill="#A4DDEE"/>
</g>
<path d="M67.8934 77.2299C78.7745 77.2299 87.5953 69.1194 87.5953 59.1145C87.5953 49.1097 78.7745 40.9991 67.8934 40.9991C57.0123 40.9991 48.1914 49.1097 48.1914 59.1145C48.1914 69.1194 57.0123 77.2299 67.8934 77.2299Z" fill="#2D2E8C"/>
<mask id="mask7_331_12248" style="mask-type:luminance" maskUnits="userSpaceOnUse" x="48" y="40" width="40" height="38">
<path d="M67.8953 77.2301C78.7764 77.2301 87.5973 69.1195 87.5973 59.1147C87.5973 49.1098 78.7764 40.9993 67.8953 40.9993C57.0142 40.9993 48.1934 49.1098 48.1934 59.1147C48.1934 69.1195 57.0142 77.2301 67.8953 77.2301Z" fill="white"/>
</mask>
<g mask="url(#mask7_331_12248)">
<path d="M60.2651 44.6793C61.9953 42.1847 64.2335 40.1685 66.7773 38.6687C60.3064 39.1509 54.1451 42.3138 50.3914 47.7397C44.0278 56.9322 46.9721 69.1281 56.9697 74.9792C64.2542 79.2433 67.8303 82.2884 74.6523 78.2712C70.1553 78.6054 70.944 74.3186 66.8475 71.9189C56.8499 66.0677 53.9056 53.8718 60.2692 44.6793H60.2651Z" fill="#705FA9"/>
<path d="M61.7952 41.6146C64.4298 40.4528 67.209 39.887 69.951 39.8491C64.7065 37.3696 58.3099 37.0924 52.5822 39.6212C42.8819 43.9042 38.7937 54.6079 43.4518 63.5308C46.8463 70.0275 53.945 73.7827 61.2996 73.6878C57.6574 71.9639 54.5726 69.177 52.6648 65.5205C48.0067 56.6013 52.0949 45.8938 61.7952 41.6109V41.6146Z" fill="#A4DDEE"/>
</g>
<path d="M75.4765 73.6759C81.4396 76.8578 90.3305 76.3832 98.7671 71.5496C111.007 64.5404 116.697 51.5813 111.659 43.0571L103.875 31.7041L92.1598 41.337L101.488 49.8233L72.4785 66.5034L75.4765 73.6797V73.6759Z" fill="#705FA9"/>
<path d="M75.4785 73.6752C81.4415 76.8571 90.3324 76.3825 98.769 71.5489C111.009 64.5397 116.699 51.5806 111.661 43.0563L103.877 31.7034L92.1618 41.3363L101.49 49.8226L72.4805 66.5027L75.4785 73.679V73.6752Z" fill="white"/>
<path d="M75.4765 73.6759C81.4396 76.8578 90.3305 76.3832 98.7671 71.5496C111.007 64.5404 116.697 51.5813 111.659 43.0571L103.875 31.7041L92.1598 41.337L101.488 49.8233L72.4785 66.5034L75.4765 73.6797V73.6759Z" fill="#1F1C6B"/>
<path d="M78.0691 51.4865L78.3458 51.2739C80.1587 53.9925 84.5401 54.0191 88.1122 51.2891C91.6883 48.5515 93.0056 44.1545 91.0771 41.5118L103.875 31.7004C110.11 39.5298 106.356 53.0699 95.248 61.5257C87.5918 67.3541 78.8455 68.9185 72.4736 66.4998C77.8172 60.3828 78.3747 54.7671 78.065 51.4865H78.0691Z" fill="#2D2E8C"/>
<path d="M103.877 31.7004L91.0791 41.5118C91.4425 42.0092 91.6861 42.5636 91.8265 43.1635L104.863 33.1281C104.566 32.6345 104.24 32.1561 103.877 31.7004Z" fill="#705FA9"/>
<path d="M51.5894 67.0646L52.8654 66.7001C61.0377 64.3573 69.8047 68.1353 73.0794 75.4104L51.6926 128.116L29.9961 113.042L51.5935 67.0646H51.5894Z" fill="#1F1C6B"/>
<mask id="mask8_331_12248" style="mask-type:luminance" maskUnits="userSpaceOnUse" x="29" y="66" width="45" height="63">
<path d="M51.5855 67.0647L52.8615 66.7002C61.0338 64.3575 69.8008 68.1355 73.0755 75.4105L51.6887 128.116L29.9922 113.042L51.5896 67.0647H51.5855Z" fill="white"/>
</mask>
<g mask="url(#mask8_331_12248)">
<path d="M46.7644 68.5457L47.6027 70.1366C55.7668 67.3306 65.4092 68.557 68.6798 75.8321L46.8635 129.597L25.167 114.523L46.7644 68.5457Z" fill="#2D2E8C"/>
<path d="M62.8022 70.1163L44.3514 109.032L28.1885 104.555L40.4903 77.7027C41.626 75.2536 46.6185 70.1923 49.4308 69.543C57.219 67.7546 61.6252 69.5809 62.8022 70.1163Z" fill="#705FA9"/>
<path d="M47.6037 69.8514L22.7109 115.427L30.6727 119.664L54.9212 68.7921C54.9584 68.6972 49.6932 69.2971 47.6037 69.8514Z" fill="#A4DDEE"/>
<path d="M66.659 91.9687C63.0457 85.8632 58.0655 82.6547 51.8588 82.4383C47.2296 82.2712 43.6204 83.9191 43.5832 83.9343L43.1455 83.1407C43.3024 83.0686 47.0107 81.3675 51.8918 81.5498C56.4095 81.7093 62.7855 83.5736 67.5056 91.5472L66.6549 91.9725L66.659 91.9687Z" fill="#1F1C6B"/>
<path d="M61.4096 102.164C52.2916 88.4114 38.8747 93.879 38.309 94.1182L37.9043 93.3095C38.0488 93.2487 52.6632 87.2571 62.2355 101.701L61.4096 102.164Z" fill="#1F1C6B"/>
<path d="M71.4882 82.1657C63.0599 68.0637 48.9947 73.8807 48.4 74.1351L47.9912 73.3301C48.144 73.2656 63.4687 66.8981 72.3348 81.7405L71.4841 82.1695L71.4882 82.1657Z" fill="#1F1C6B"/>
</g>
<path d="M41.7644 143.103C54.8897 143.103 65.5298 133.32 65.5298 121.252C65.5298 109.183 54.8897 99.4 41.7644 99.4C28.6392 99.4 17.999 109.183 17.999 121.252C17.999 133.32 28.6392 143.103 41.7644 143.103Z" fill="#1F1C6B"/>
<mask id="mask9_331_12248" style="mask-type:luminance" maskUnits="userSpaceOnUse" x="17" y="99" width="49" height="45">
<path d="M41.7644 143.103C54.8897 143.103 65.5298 133.32 65.5298 121.252C65.5298 109.183 54.8897 99.4 41.7644 99.4C28.6392 99.4 17.999 109.183 17.999 121.252C17.999 133.32 28.6392 143.103 41.7644 143.103Z" fill="white"/>
</mask>
<g mask="url(#mask9_331_12248)">
<path d="M38.4841 144.808C51.1099 144.808 61.3452 135.397 61.3452 123.788C61.3452 112.179 51.1099 102.768 38.4841 102.768C25.8583 102.768 15.623 112.179 15.623 123.788C15.623 135.397 25.8583 144.808 38.4841 144.808Z" fill="#2D2E8C"/>
<path d="M40.0177 141.193C26.1384 138.209 17.5159 125.44 20.7659 112.678C22.2897 106.682 26.1673 101.754 31.2838 98.5227C24.3131 101.705 18.8828 107.616 16.975 115.127C13.5764 128.492 22.5994 141.858 37.1353 144.986C50.6719 147.899 64.2085 140.897 68.751 129.126C63.4156 138.475 51.7167 143.711 40.0177 141.193Z" fill="#A4DDEE"/>
</g>
<path d="M60.9226 125.022L60.4477 124.426C59.4732 123.2 57.9907 122.41 56.3554 122.19C45.9985 120.796 36.0835 126.45 34.7373 137.427L61.0919 190.463L94.2066 167.913L60.9226 125.022Z" fill="#1F1C6B"/>
<mask id="mask10_331_12248" style="mask-type:luminance" maskUnits="userSpaceOnUse" x="34" y="121" width="61" height="70">
<path d="M60.9256 125.022L60.4507 124.426C59.4761 123.2 57.9936 122.41 56.3583 122.19C46.0015 120.796 36.0865 126.45 34.7402 137.427L61.0949 190.463L94.2096 167.913L60.9256 125.022Z" fill="white"/>
</mask>
<g mask="url(#mask10_331_12248)">
<path d="M60.8788 130.311L60.2717 129.548C59.0163 127.976 57.1168 126.958 55.019 126.677C41.7219 124.889 32.3396 136.781 32.8682 149.353L27.2686 146.236L61.0976 214.315L103.603 185.371L60.8788 130.315V130.311Z" fill="#2D2E8C"/>
<path d="M34.6602 140.32L55.8777 173.901L62.3982 166.77C62.3982 166.77 41.6143 130.539 41.6143 130.049C41.6143 130.049 35.3539 134.431 34.6602 140.32Z" fill="#705FA9"/>
<path d="M33.7715 142.428L51.7927 174.376L54.7123 170.777C54.7123 170.777 36.9553 135.271 36.9553 134.781C36.9553 134.781 34.6015 137.986 33.7715 142.428Z" fill="#A4DDEE"/>
<path d="M47.7792 164.624L46.9326 164.438C46.9822 164.248 52.1152 145.681 78.094 147.12L78.0444 147.918C52.7842 146.57 47.8246 164.446 47.7792 164.628V164.624Z" fill="#1F1C6B"/>
<path d="M42.5116 153.15L41.665 152.964C41.7105 152.793 46.447 135.654 70.4065 136.986L70.357 137.784C47.116 136.512 42.557 152.987 42.5116 153.154V153.15Z" fill="#1F1C6B"/>
<path d="M37.6698 143.262L36.8232 143.076C36.8645 142.913 41.2707 126.965 63.566 128.207L63.5165 129.004C52.247 128.393 45.8256 132.293 42.4229 135.676C38.727 139.347 37.6781 143.224 37.6698 143.262Z" fill="#1F1C6B"/>
</g>
<path d="M78.7123 208.776C95.2745 208.776 108.701 196.431 108.701 181.202C108.701 165.974 95.2745 153.629 78.7123 153.629C62.15 153.629 48.7236 165.974 48.7236 181.202C48.7236 196.431 62.15 208.776 78.7123 208.776Z" fill="#1F1C6B"/>
<mask id="mask11_331_12248" style="mask-type:luminance" maskUnits="userSpaceOnUse" x="48" y="153" width="61" height="56">
<path d="M78.7191 208.776C95.2813 208.776 108.708 196.431 108.708 181.202C108.708 165.974 95.2813 153.629 78.7191 153.629C62.1568 153.629 48.7305 165.974 48.7305 181.202C48.7305 196.431 62.1568 208.776 78.7191 208.776Z" fill="white"/>
</mask>
<g mask="url(#mask11_331_12248)">
<path d="M85.9859 209.031C101.353 209.031 113.811 197.577 113.811 183.447C113.811 169.317 101.353 157.863 85.9859 157.863C70.6187 157.863 58.1611 169.317 58.1611 183.447C58.1611 197.577 70.6187 209.031 85.9859 209.031Z" fill="#2D2E8C"/>
</g>
<path d="M259.607 67.3877L252.574 53.9654C255.642 53.0996 256.543 49.4811 254.647 45.8892C252.76 42.32 248.767 40.0456 245.682 40.805L238.757 28.0737L247.061 20.6469L250.014 21.3227L269.01 32.2049L270.075 42.3504L270.992 50.2519L259.611 67.3877H259.607Z" fill="#1F1C6B"/>
<mask id="mask12_331_12248" style="mask-type:luminance" maskUnits="userSpaceOnUse" x="238" y="20" width="33" height="48">
<path d="M259.614 67.3874L252.581 53.9651C255.649 53.0994 256.55 49.4809 254.654 45.8889C252.767 42.3198 248.774 40.0454 245.689 40.8048L238.764 28.0735L247.068 20.6466L250.021 21.3225L269.017 32.2046L270.082 42.3502L270.999 50.2517L259.618 67.3874H259.614Z" fill="white"/>
</mask>
<g mask="url(#mask12_331_12248)">
<path d="M243.36 20.2691L234.085 26.7847L234.486 29.8071L237.859 30.9386L247.849 21.8524L247.394 18.3098L243.36 20.2691Z" fill="#705FA9"/>
</g>
<path d="M264.447 37.2702C266.681 40.6912 266.128 44.3705 263.154 45.483L271.442 58.2864C280.114 54.6755 281.394 43.6339 274.754 33.6213C268.221 23.7757 256.035 17.9853 247.078 20.647L255.032 32.9302C258.034 31.924 262.229 33.8681 264.451 37.2702H264.447Z" fill="#2D2E8C"/>
<path d="M264.447 37.2702C266.681 40.6912 266.128 44.3705 263.154 45.483L271.442 58.2864C280.114 54.6755 281.394 43.6339 274.754 33.6213C268.221 23.7757 256.035 17.9853 247.078 20.647L255.032 32.9302C258.034 31.924 262.229 33.8681 264.451 37.2702H264.447Z" fill="#2D2E8C"/>
<mask id="mask13_331_12248" style="mask-type:luminance" maskUnits="userSpaceOnUse" x="247" y="20" width="32" height="39">
<path d="M264.45 37.2702C266.684 40.6912 266.131 44.3705 263.157 45.483L271.445 58.2864C280.117 54.6755 281.397 43.6339 274.757 33.6213C268.224 23.7757 256.038 17.9853 247.081 20.647L255.035 32.9302C258.037 31.924 262.232 33.8681 264.454 37.2702H264.45Z" fill="white"/>
</mask>
<g mask="url(#mask13_331_12248)">
<path d="M259.856 38.004C262.288 41.0378 261.71 44.6981 258.506 46.1903L267.525 57.5433C276.87 52.835 278.191 41.8883 270.965 33.0337C263.858 24.3234 250.66 20.3404 241.005 24.164L249.66 35.0575C252.898 33.6678 257.436 34.9892 259.856 38.004Z" fill="#2D2E8C"/>
<path d="M255.901 22.9334C251.817 21.8209 247.679 21.5931 243.723 22.1246C250.64 17.4544 259.774 15.7077 268.648 18.1264C283.688 22.2272 292.269 36.7354 287.822 50.5299C284.58 60.5767 275.318 67.4682 264.713 68.8883C269.516 65.6457 273.249 60.9906 275.074 55.3369C279.526 41.5424 270.94 27.0341 255.901 22.9334Z" fill="#FDCF59"/>
</g>
<path d="M258.099 77.2299C268.981 77.2299 277.801 69.1194 277.801 59.1145C277.801 49.1097 268.981 40.9991 258.099 40.9991C247.218 40.9991 238.397 49.1097 238.397 59.1145C238.397 69.1194 247.218 77.2299 258.099 77.2299Z" fill="#2D2E8C"/>
<mask id="mask14_331_12248" style="mask-type:luminance" maskUnits="userSpaceOnUse" x="238" y="40" width="40" height="38">
<path d="M258.095 77.2299C268.976 77.2299 277.797 69.1194 277.797 59.1145C277.797 49.1097 268.976 40.9991 258.095 40.9991C247.213 40.9991 238.393 49.1097 238.393 59.1145C238.393 69.1194 247.213 77.2299 258.095 77.2299Z" fill="white"/>
</mask>
<g mask="url(#mask14_331_12248)">
<path d="M265.733 44.6793C264.003 42.1847 261.764 40.1685 259.221 38.6687C265.692 39.1509 271.853 42.3138 275.607 47.7397C281.97 56.9322 279.026 69.1281 269.028 74.9792C261.744 79.2433 258.168 82.2884 251.346 78.2712C255.843 78.6054 255.054 74.3186 259.15 71.9189C269.148 66.0677 272.092 53.8718 265.729 44.6793H265.733Z" fill="#705FA9"/>
<path d="M264.197 41.6148C261.562 40.4529 258.783 39.8871 256.041 39.8492C261.286 37.3697 267.682 37.0926 273.41 39.6214C283.11 43.9044 287.198 54.608 282.54 63.531C279.146 70.0276 272.047 73.7828 264.692 73.6879C268.335 71.9641 271.419 69.1771 273.327 65.5206C277.985 56.6015 273.897 45.894 264.197 41.611V41.6148Z" fill="#FDCF59"/>
</g>
<path d="M250.516 73.6759C244.553 76.8578 235.663 76.3832 227.226 71.5496C214.986 64.5404 209.296 51.5813 214.334 43.0571L222.118 31.7041L233.833 41.337L224.505 49.8233L253.514 66.5034L250.516 73.6797V73.6759Z" fill="#705FA9"/>
<path d="M250.514 73.6758C244.551 76.8577 235.661 76.3831 227.224 71.5495C214.984 64.5403 209.294 51.5812 214.332 43.057L222.116 31.704L233.831 41.3369L224.503 49.8232L253.513 66.5033L250.514 73.6796V73.6758Z" fill="white"/>
<path d="M250.516 73.6759C244.553 76.8578 235.663 76.3832 227.226 71.5496C214.986 64.5404 209.296 51.5813 214.334 43.0571L222.118 31.7041L233.833 41.337L224.505 49.8233L253.514 66.5034L250.516 73.6797V73.6759Z" fill="#1F1C6B"/>
<path d="M247.92 51.4865L247.643 51.2739C245.83 53.9925 241.449 54.0191 237.877 51.2891C234.3 48.5515 232.983 44.1545 234.912 41.5118L222.114 31.7004C215.879 39.5298 219.632 53.0699 230.741 61.5257C238.397 67.3541 247.143 68.9185 253.515 66.4998C248.172 60.3828 247.614 54.7671 247.924 51.4865H247.92Z" fill="#2D2E8C"/>
<path d="M222.11 31.7004L234.907 41.5118C234.544 42.0092 234.3 42.5636 234.16 43.1635L221.123 33.1281C221.42 32.6345 221.747 32.1561 222.11 31.7004Z" fill="#705FA9"/>
<path d="M274.402 67.0646L273.126 66.7001C264.954 64.3573 256.187 68.1353 252.912 75.4104L274.299 128.116L295.995 113.042L274.398 67.0646H274.402Z" fill="#1F1C6B"/>
<mask id="mask15_331_12248" style="mask-type:luminance" maskUnits="userSpaceOnUse" x="252" y="66" width="44" height="63">
<path d="M274.399 67.0646L273.123 66.7001C264.951 64.3573 256.184 68.1353 252.909 75.4104L274.296 128.116L295.993 113.042L274.395 67.0646H274.399Z" fill="white"/>
</mask>
<g mask="url(#mask15_331_12248)">
<path d="M279.225 68.5455L278.387 70.1365C270.223 67.3305 260.58 68.5569 257.31 75.8319L279.126 129.597L300.822 114.523L279.225 68.5455Z" fill="#2D2E8C"/>
<path d="M263.196 70.1162L281.647 109.031L297.81 104.555L285.508 77.7026C284.373 75.2535 279.38 70.1921 276.568 69.5429C268.779 67.7545 264.373 69.5808 263.196 70.1162Z" fill="#705FA9"/>
<path d="M278.383 69.8506L303.276 115.426L295.314 119.663L271.066 68.7912C271.028 68.6963 276.294 69.2962 278.383 69.8506Z" fill="#FDCF59"/>
<path d="M259.339 91.9686C262.952 85.863 267.932 82.6546 274.139 82.4382C278.768 82.2711 282.377 83.919 282.415 83.9342L282.852 83.1406C282.695 83.0685 278.987 81.3674 274.106 81.5497C269.588 81.7091 263.212 83.5735 258.492 91.5471L259.343 91.9724L259.339 91.9686Z" fill="#1F1C6B"/>
<path d="M264.589 102.164C273.707 88.4111 287.123 93.8788 287.689 94.118L288.094 93.3092C287.949 93.2485 273.335 87.2568 263.763 101.701L264.589 102.164Z" fill="#1F1C6B"/>
<path d="M254.505 82.1649C262.933 68.0629 276.998 73.8799 277.593 74.1342L278.002 73.3293C277.849 73.2647 262.524 66.8972 253.658 81.7396L254.509 82.1687L254.505 82.1649Z" fill="#1F1C6B"/>
</g>
<path d="M284.227 143.103C297.353 143.103 307.993 133.32 307.993 121.252C307.993 109.183 297.353 99.4 284.227 99.4C271.102 99.4 260.462 109.183 260.462 121.252C260.462 133.32 271.102 143.103 284.227 143.103Z" fill="#1F1C6B"/>
<mask id="mask16_331_12248" style="mask-type:luminance" maskUnits="userSpaceOnUse" x="260" y="99" width="48" height="45">
<path d="M284.233 143.103C297.358 143.103 307.999 133.32 307.999 121.252C307.999 109.183 297.358 99.4 284.233 99.4C271.108 99.4 260.468 109.183 260.468 121.252C260.468 133.32 271.108 143.103 284.233 143.103Z" fill="white"/>
</mask>
<g mask="url(#mask16_331_12248)">
<path d="M287.508 144.809C300.133 144.809 310.369 135.398 310.369 123.789C310.369 112.18 300.133 102.769 287.508 102.769C274.882 102.769 264.646 112.18 264.646 123.789C264.646 135.398 274.882 144.809 287.508 144.809Z" fill="#2D2E8C"/>
<path d="M285.975 141.194C299.855 138.209 308.477 125.44 305.227 112.678C303.703 106.683 299.826 101.755 294.709 98.5233C301.68 101.705 307.11 107.617 309.018 115.128C312.417 128.493 303.394 141.858 288.858 144.987C275.321 147.899 261.785 140.898 257.242 129.127C262.578 138.475 274.276 143.711 285.975 141.194Z" fill="#FDCF59"/>
</g>
<path d="M265.066 125.021L265.541 124.425C266.516 123.199 267.998 122.409 269.633 122.189C279.99 120.795 289.905 126.449 291.252 137.426L264.897 190.462L231.782 167.912L265.066 125.021Z" fill="#1F1C6B"/>
<mask id="mask17_331_12248" style="mask-type:luminance" maskUnits="userSpaceOnUse" x="231" y="121" width="61" height="70">
<path d="M265.072 125.022L265.547 124.426C266.522 123.2 268.004 122.41 269.639 122.19C279.996 120.796 289.911 126.45 291.257 137.427L264.903 190.463L231.788 167.913L265.072 125.022Z" fill="white"/>
</mask>
<g mask="url(#mask17_331_12248)">
<path d="M265.114 130.311L265.721 129.548C266.976 127.976 268.876 126.958 270.974 126.677C284.271 124.889 293.653 136.781 293.124 149.353L298.724 146.236L264.895 214.315L222.39 185.371L265.114 130.315V130.311Z" fill="#2D2E8C"/>
<path d="M291.333 140.32L270.115 173.901L263.595 166.77C263.595 166.77 284.379 130.539 284.379 130.049C284.379 130.049 290.639 134.431 291.333 140.32Z" fill="#705FA9"/>
<path d="M292.239 142.428L274.217 174.376L271.298 170.777C271.298 170.777 289.055 135.271 289.055 134.781C289.055 134.781 291.409 137.986 292.239 142.428Z" fill="#FDCF59"/>
<path d="M278.211 164.624L279.058 164.438C279.008 164.248 273.875 145.681 247.896 147.12L247.946 147.918C273.206 146.57 278.166 164.446 278.211 164.628V164.624Z" fill="#1F1C6B"/>
<path d="M283.49 153.151L284.336 152.965C284.291 152.794 279.554 135.654 255.595 136.987L255.644 137.784C278.885 136.512 283.444 152.987 283.49 153.155V153.151Z" fill="#1F1C6B"/>
<path d="M288.333 143.261L289.179 143.075C289.138 142.912 284.732 126.964 262.437 128.206L262.486 129.003C273.756 128.392 280.177 132.292 283.58 135.675C287.276 139.346 288.325 143.223 288.333 143.261Z" fill="#1F1C6B"/>
</g>
<path d="M247.277 208.776C263.839 208.776 277.265 196.431 277.265 181.202C277.265 165.974 263.839 153.629 247.277 153.629C230.714 153.629 217.288 165.974 217.288 181.202C217.288 196.431 230.714 208.776 247.277 208.776Z" fill="#1F1C6B"/>
<mask id="mask18_331_12248" style="mask-type:luminance" maskUnits="userSpaceOnUse" x="217" y="153" width="61" height="56">
<path d="M247.287 208.777C263.85 208.777 277.276 196.432 277.276 181.203C277.276 165.975 263.85 153.63 247.287 153.63C230.725 153.63 217.299 165.975 217.299 181.203C217.299 196.432 230.725 208.777 247.287 208.777Z" fill="white"/>
</mask>
<g mask="url(#mask18_331_12248)">
<path d="M240.008 209.031C255.376 209.031 267.833 197.577 267.833 183.447C267.833 169.317 255.376 157.863 240.008 157.863C224.641 157.863 212.184 169.317 212.184 183.447C212.184 197.577 224.641 209.031 240.008 209.031Z" fill="#2D2E8C"/>
</g>
<path d="M162.187 192.203C179.858 192.203 194.183 186.44 194.183 179.331C194.183 172.222 179.858 166.459 162.187 166.459C144.516 166.459 130.191 172.222 130.191 179.331C130.191 186.44 144.516 192.203 162.187 192.203Z" fill="#2D2E8C"/>
<path d="M265.224 253.603L60.4984 253.128C55.4149 253.117 52.5367 254.89 54.0315 257.036L72.9696 298.218C73.7583 299.349 77.2849 300.257 80.8652 300.264L244.523 300.549C248.095 300.557 251.621 299.664 252.418 298.537L271.641 257.537C273.148 255.403 270.295 253.618 265.228 253.607L265.224 253.603Z" fill="#1F1C6B"/>
<path d="M266.684 260.252L59.0227 260.746C53.8691 260.757 50.9412 257.317 52.4485 253.163L82.6188 173.453C83.4158 171.262 86.992 169.512 90.6218 169.504L234.432 169.257C238.054 169.25 241.634 170.989 242.448 173.176L273.176 252.654C274.712 256.793 271.821 260.244 266.684 260.256V260.252Z" fill="#1F1C6B"/>
<path d="M230.879 251.705H94.7578C91.3798 251.712 88.7452 249.616 84.3184 244.923L106.391 191.173C106.861 189.556 109.281 188.261 111.8 188.257L213.378 188.079C215.893 188.075 218.317 189.358 218.8 190.972L241.558 245.132C238.399 249.343 234.274 251.705 230.875 251.705H230.879Z" fill="#705FA9"/>
<path d="M240.245 246.647L87.2012 246.996C83.5259 247.004 82.861 244.539 83.753 241.555L101.716 181.392C102.233 179.656 104.859 178.267 107.589 178.263L217.554 178.069C220.275 178.066 222.906 179.444 223.438 181.175L241.819 241.19C242.731 244.167 243.908 246.639 240.245 246.647Z" fill="#2D2E8C"/>
<path d="M166.71 186.461C166.764 188.694 163.989 190.543 160.512 190.551C157.035 190.558 154.285 188.717 154.363 186.484C154.441 184.301 157.216 182.558 160.561 182.551C163.906 182.543 166.657 184.278 166.71 186.461Z" fill="#1F1C6B"/>
<path d="M166.923 197.586C166.981 200.066 164.057 202.124 160.39 202.131C156.723 202.139 153.824 200.092 153.915 197.609C154.002 195.183 156.93 193.25 160.448 193.242C163.971 193.235 166.869 195.156 166.923 197.582V197.586Z" fill="#1F1C6B"/>
<path d="M222.525 197.499C225.115 206.768 215.976 214.908 201.911 214.939C187.841 214.969 175.928 206.87 175.35 197.59C174.817 189.043 184.253 182.573 196.381 182.551C208.51 182.528 220.138 188.96 222.521 197.499H222.525Z" fill="#705FA9"/>
<path d="M222.525 197.499C225.115 206.768 215.976 214.908 201.911 214.939C187.841 214.969 175.928 206.87 175.35 197.59C174.817 189.043 184.253 182.573 196.381 182.551C208.51 182.528 220.138 188.96 222.521 197.499H222.525Z" fill="#705FA9"/>
<mask id="mask19_331_12248" style="mask-type:luminance" maskUnits="userSpaceOnUse" x="175" y="182" width="48" height="33">
<path d="M222.534 197.501C225.123 206.769 215.985 214.91 201.92 214.94C187.85 214.97 175.937 206.871 175.358 197.592C174.826 189.045 184.262 182.575 196.39 182.552C208.518 182.529 220.147 188.961 222.53 197.501H222.534Z" fill="white"/>
</mask>
<g mask="url(#mask19_331_12248)">
<path d="M222.657 199.775C225.251 209.085 216.1 217.256 202.001 217.286C187.903 217.317 175.965 209.184 175.387 199.866C174.854 191.281 184.306 184.784 196.464 184.765C208.617 184.742 220.271 191.201 222.662 199.775H222.657Z" fill="#1F1C6B"/>
</g>
<path d="M124.426 241.342L114.227 241.383L125.257 182.572L133.156 182.549L124.426 241.342Z" fill="#1F1C6B"/>
<path d="M140.031 241.343L129.835 241.385L137.351 182.573L145.25 182.551L140.031 241.343Z" fill="#1F1C6B"/>
<path d="M112.003 207.705C111.421 209.205 109.27 210.302 107.209 210.15C105.148 209.994 103.988 208.65 104.603 207.158C105.214 205.681 107.349 204.61 109.373 204.762C111.4 204.91 112.581 206.224 112.003 207.708V207.705Z" fill="#E9509C"/>
<path d="M116.83 187.794C116.326 189.043 114.389 189.958 112.506 189.829C110.623 189.7 109.533 188.58 110.066 187.338C110.594 186.104 112.519 185.216 114.369 185.341C116.223 185.466 117.325 186.56 116.83 187.798V187.794Z" fill="#E9509C"/>
<path d="M106.154 231.835C105.464 233.669 103.052 235.017 100.777 234.827C98.5017 234.637 97.2588 232.989 97.9897 231.163C98.7123 229.356 101.103 228.053 103.333 228.236C105.567 228.418 106.835 230.02 106.154 231.835Z" fill="#E9509C"/>
<path d="M142.434 121.309C145.399 121.309 147.802 119.869 147.802 118.093C147.802 116.316 145.399 114.877 142.434 114.877C139.469 114.877 137.065 116.316 137.065 118.093C137.065 119.869 139.469 121.309 142.434 121.309Z" fill="#EF77A8"/>
<path d="M57.6355 253.417L86.3894 173.175C86.9634 171.509 89.0488 170.096 91.5265 169.5H90.6222C86.9923 169.508 83.4161 171.258 82.6191 173.449L52.4488 253.159C50.9416 257.313 53.8653 260.757 59.023 260.741L61.4925 260.734C58.1311 259.8 56.4545 256.846 57.6355 253.409V253.417Z" fill="#A4DDEE"/>
<path d="M273.176 252.65L242.448 173.171C241.639 170.984 238.054 169.249 234.433 169.253H233.615C236.064 169.849 238.125 171.243 238.707 172.89L267.989 252.897C269.203 256.356 267.514 259.333 264.104 260.255L266.684 260.248C271.822 260.236 274.712 256.785 273.176 252.646V252.65Z" fill="#FDCF59"/>
<path d="M293.191 295.914H32.2256V361.366H293.191V295.914Z" fill="#1F1C6B"/>
</g>
</svg>
