<svg width="204" height="197" viewBox="0 0 204 197" fill="none" xmlns="http://www.w3.org/2000/svg">
<path d="M47.2018 127.309C56.7609 127.309 64.51 120.184 64.51 111.395C64.51 102.605 56.7609 95.4802 47.2018 95.4802C37.6427 95.4802 29.8936 102.605 29.8936 111.395C29.8936 120.184 37.6427 127.309 47.2018 127.309Z" fill="#E9509C"/>
<path d="M68.1183 73.219C68.0777 73.219 68.04 73.219 67.9995 73.211C67.5212 73.1524 67.1849 72.7446 67.2516 72.3048L69.2372 58.9118C69.3039 58.472 69.7445 58.1655 70.2228 58.2241C70.7011 58.2827 71.0373 58.6905 70.9706 59.1303L68.985 72.5234C68.9242 72.9258 68.5502 73.219 68.1183 73.219Z" fill="#A4DDEE"/>
<path d="M74.3859 57.2199C74.296 59.1922 72.4263 60.7993 70.2088 60.7993C67.9913 60.7993 66.2956 59.1895 66.4173 57.2199C66.5361 55.2635 68.4058 53.6884 70.5914 53.6884C72.7771 53.6884 74.4757 55.2635 74.3859 57.2199Z" fill="#A4DDEE"/>
<path d="M129.5 57.2199C129.589 59.1922 131.459 60.7993 133.677 60.7993C135.891 60.7993 137.59 59.1895 137.468 57.2199C137.349 55.2635 135.48 53.6884 133.294 53.6884C131.108 53.6884 129.41 55.2635 129.5 57.2199Z" fill="#FDCF59"/>
<path d="M135.911 73.219C135.951 73.219 135.989 73.219 136.029 73.211C136.508 73.1524 136.844 72.7446 136.777 72.3048L134.792 58.9118C134.725 58.472 134.284 58.1655 133.806 58.2241C133.328 58.2827 132.992 58.6905 133.058 59.1303L135.044 72.5234C135.105 72.9258 135.479 73.219 135.911 73.219Z" fill="#FDCF59"/>
<path d="M75.5649 56.9312C75.4692 59.0155 73.4923 60.7159 71.153 60.7159C68.8137 60.7159 67.0165 59.0155 67.1441 56.9312C67.2716 54.8629 69.2457 53.1971 71.5559 53.1971C73.8662 53.1971 75.6605 54.8629 75.5649 56.9312Z" fill="#1F1C6B"/>
<path d="M72.6138 59.2587C70.2513 59.2587 68.4106 57.6382 68.3266 55.5833C68.0715 55.9964 67.9092 56.4601 67.8773 56.9559C67.7729 58.6697 69.2484 60.0689 71.176 60.0689C72.15 60.0689 73.0457 59.7118 73.7037 59.1361C73.353 59.2134 72.9877 59.2587 72.6138 59.2587Z" fill="#705FA9"/>
<path d="M68.9328 73.219C68.8922 73.219 68.8545 73.219 68.8139 73.211C68.3356 73.1524 67.9994 72.7446 68.066 72.3048L70.0517 58.9118C70.1183 58.472 70.5589 58.1655 71.0372 58.2241C71.5155 58.2827 71.8518 58.6905 71.7851 59.1303L69.7995 72.5234C69.7386 72.9258 69.3647 73.219 68.9328 73.219Z" fill="#1F1C6B"/>
<path d="M72.7264 71.4468L68.0305 71.4574C65.7318 71.4734 63.9201 73.9628 63.5143 76.0417L60.7808 87.2653C59.685 91.3378 63.7317 95.3358 68.9899 95.3358H72.6249L72.7293 71.4468H72.7264Z" fill="#1F1C6B"/>
<mask id="mask0_331_12258" style="mask-type:luminance" maskUnits="userSpaceOnUse" x="60" y="71" width="13" height="25">
<path d="M72.7274 71.4467L68.0314 71.4573C65.7327 71.4733 63.9211 73.9627 63.5152 76.0416L60.7817 87.2652C59.686 91.3377 63.7326 95.3356 68.9909 95.3356H72.6259L72.7303 71.4467H72.7274Z" fill="white"/>
</mask>
<g mask="url(#mask0_331_12258)">
<path d="M62.2402 88.7954C62.2402 88.7954 62.2402 89.2325 62.3765 89.731C62.562 90.4053 63.2229 90.8824 63.9824 90.8824H70.203V88.7954C70.203 88.7954 62.2402 88.5902 62.2402 88.7954Z" fill="#705FA9"/>
</g>
<path d="M74.211 59.3331L71.2021 60.3246L71.7413 58.4189H72.9327L74.211 59.3331Z" fill="#1F1C6B"/>
<path d="M128.469 56.9312C128.565 59.0155 130.542 60.7159 132.881 60.7159C135.221 60.7159 137.018 59.0155 136.89 56.9312C136.763 54.8629 134.789 53.1971 132.478 53.1971C130.168 53.1971 128.374 54.8629 128.469 56.9312Z" fill="#1F1C6B"/>
<path d="M136.158 56.9559C136.129 56.4628 135.967 55.9964 135.709 55.5833C135.622 57.6382 133.784 59.2587 131.422 59.2587C131.048 59.2587 130.683 59.2134 130.332 59.1361C130.99 59.7118 131.886 60.0689 132.86 60.0689C134.787 60.0689 136.263 58.6697 136.158 56.9559Z" fill="#705FA9"/>
<path d="M135.1 73.2192C134.668 73.2192 134.294 72.926 134.233 72.5235L132.248 59.1305C132.181 58.6907 132.517 58.2856 132.996 58.2243C133.474 58.1603 133.914 58.4721 133.981 58.9119L135.967 72.305C136.033 72.7448 135.697 73.1499 135.219 73.2112C135.178 73.2165 135.138 73.2192 135.1 73.2192Z" fill="#1F1C6B"/>
<path d="M131.306 71.4468L136.002 71.4574C138.3 71.4734 140.112 73.9628 140.518 76.0417L143.251 87.2653C144.347 91.3378 140.3 95.3358 135.042 95.3358H131.407L131.303 71.4468H131.306Z" fill="#1F1C6B"/>
<mask id="mask1_331_12258" style="mask-type:luminance" maskUnits="userSpaceOnUse" x="131" y="71" width="13" height="25">
<path d="M131.304 71.4467L136 71.4573C138.298 71.4733 140.11 73.9627 140.516 76.0416L143.249 87.2652C144.345 91.3377 140.298 95.3356 135.04 95.3356H131.405L131.301 71.4467H131.304Z" fill="white"/>
</mask>
<g mask="url(#mask1_331_12258)">
<path d="M141.8 88.7948C141.8 88.7948 141.8 89.2319 141.663 89.7303C141.478 90.4047 140.817 90.8818 140.058 90.8818H133.837V88.7948C133.837 88.7948 141.8 88.5896 141.8 88.7948Z" fill="#705FA9"/>
</g>
<path d="M129.823 59.3331L132.832 60.3246L132.293 58.4189H131.102L129.823 59.3331Z" fill="#1F1C6B"/>
<path d="M125.643 111.536L77.345 112.5C74.4666 112.5 72.3998 110.597 72.7245 108.297L69.0547 94.2512C69.3272 92.4388 77.8523 77.9636 80.2843 77.9663L123.719 77.9823C126.154 77.9823 134.705 92.4682 134.98 94.2806L130.258 107.351C130.58 109.643 128.516 111.538 125.641 111.536H125.643Z" fill="#1F1C6B"/>
<path d="M122.044 65.4416L81.9375 65.407L82.2419 62.5444C82.3839 61.2225 84.0797 60.1643 86.0334 60.167L117.951 60.1937C119.905 60.1937 121.604 61.2544 121.743 62.5791L122.044 65.4416Z" fill="#1F1C6B"/>
<path d="M129.982 98.7446L74.0545 98.7206C70.921 98.7206 68.6832 96.695 69.0513 94.2509L73.1067 67.3208C73.3849 65.4818 75.7503 64.0159 78.3939 64.0186L125.6 64.0372C128.246 64.0372 130.611 65.5058 130.893 67.3448L134.977 94.2802C135.348 96.7243 133.113 98.7473 129.979 98.7446H129.982Z" fill="#2D2E8C"/>
<mask id="mask2_331_12258" style="mask-type:luminance" maskUnits="userSpaceOnUse" x="69" y="64" width="67" height="35">
<path d="M129.989 98.7446L74.0614 98.7206C70.9279 98.7206 68.69 96.695 69.0582 94.2509L73.1135 67.3208C73.3918 65.4818 75.7571 64.0159 78.4007 64.0186L125.606 64.0372C128.253 64.0372 130.618 65.5058 130.899 67.3448L134.984 94.2802C135.355 96.7243 133.12 98.7473 129.986 98.7446H129.989Z" fill="white"/>
</mask>
<g mask="url(#mask2_331_12258)">
<path d="M140.444 96.2209H65.0078V105.979H140.444V96.2209Z" fill="#705FA9"/>
</g>
<path d="M124.655 90.5467L79.3887 90.528L80.3945 82.0231L123.783 82.0417L124.655 90.5467Z" fill="#1F1C6B"/>
<mask id="mask3_331_12258" style="mask-type:luminance" maskUnits="userSpaceOnUse" x="79" y="82" width="46" height="9">
<path d="M124.66 90.5465L79.3936 90.5279L80.3994 82.0229L123.787 82.0416L124.66 90.5465Z" fill="white"/>
</mask>
<g mask="url(#mask3_331_12258)">
<path d="M123.869 81.9028H80.1765L80.1504 83.7632H123.895L123.869 81.9028Z" fill="#705FA9"/>
</g>
<path d="M104.483 79.3834H99.5143L98.7549 76.7954H105.265L104.483 79.3834Z" fill="#705FA9"/>
<path d="M95.9147 73.1191C96.0742 76.7652 92.1928 79.8836 87.2389 79.8836C82.285 79.8836 78.5659 76.7652 78.9109 73.1191C79.2355 69.6755 83.1053 67.0236 87.5693 67.0236C92.0333 67.0236 95.7669 69.6755 95.9147 73.1191Z" fill="#1F1C6B"/>
<path d="M124.854 73.1181C125.196 76.7642 121.474 79.8826 116.52 79.8826C111.566 79.8826 107.687 76.7642 107.85 73.1181C108 69.6745 111.737 67.0226 116.201 67.0226C120.665 67.0226 124.532 69.6745 124.856 73.1181H124.854Z" fill="#1F1C6B"/>
<path d="M94.7255 72.6915C94.682 76.0364 91.334 78.5125 87.2642 78.5125C83.1915 78.5125 80.0029 75.9831 80.1276 72.6915C80.2696 69.0134 83.6118 66.0656 87.5975 66.0656C91.5833 66.0656 94.7748 69.0134 94.7284 72.6915H94.7255Z" fill="#E9509C"/>
<path d="M123.644 72.6915C123.772 76.0364 120.548 78.5125 116.476 78.5125C112.403 78.5125 109.087 75.9831 109.046 72.6915C109.003 69.0134 112.194 66.0656 116.18 66.0656C120.166 66.0656 123.505 69.0134 123.644 72.6915Z" fill="#E9509C"/>
<path d="M103.796 60.5786L100.187 60.5759L98.7549 76.7969L105.265 76.7995L103.796 60.5786Z" fill="#1F1C6B"/>
<path d="M34.1851 33.2638L39.1216 23.842C36.9679 23.2343 36.336 20.6943 37.6665 18.1729C38.9912 15.6676 41.7943 14.0711 43.9596 14.6041L48.8207 5.6674L42.9914 0.454102L40.9188 0.928523L27.5847 8.56724L26.8369 15.6889L26.1934 21.2354L34.1822 33.2638H34.1851Z" fill="#1F1C6B"/>
<mask id="mask4_331_12258" style="mask-type:luminance" maskUnits="userSpaceOnUse" x="26" y="0" width="23" height="34">
<path d="M34.192 33.2638L39.1285 23.842C36.9747 23.2343 36.3428 20.6943 37.6733 18.1729C38.998 15.6676 41.8011 14.0711 43.9664 14.6041L48.8276 5.6674L42.9983 0.454102L40.9257 0.928523L27.5916 8.56724L26.8437 15.6889L26.2002 21.2354L34.1891 33.2638H34.192Z" fill="white"/>
</mask>
<g mask="url(#mask4_331_12258)">
<path d="M45.4112 0.931367L51.2348 5.54232L48.997 7.34139L42.3444 1.4431L37.2861 1.84556L42.7415 -0.630493L45.4112 0.931367Z" fill="#705FA9"/>
</g>
<path d="M30.7887 12.1228C29.2205 14.5242 29.6089 17.1069 31.696 17.8878L25.8782 26.8751C19.7909 24.3405 18.8923 16.5898 23.5535 9.56143C28.1392 2.65034 36.6934 -1.41423 42.9807 0.454138L37.3977 9.07635C35.2904 8.37005 32.3453 9.73467 30.7858 12.1228H30.7887Z" fill="#2D2E8C"/>
<path d="M30.7887 12.1228C29.2205 14.5242 29.6089 17.1069 31.696 17.8878L25.8782 26.8751C19.7909 24.3405 18.8923 16.5898 23.5535 9.56143C28.1392 2.65034 36.6934 -1.41423 42.9807 0.454138L37.3977 9.07635C35.2904 8.37005 32.3453 9.73467 30.7858 12.1228H30.7887Z" fill="#2D2E8C"/>
<mask id="mask5_331_12258" style="mask-type:luminance" maskUnits="userSpaceOnUse" x="20" y="0" width="23" height="27">
<path d="M30.7955 12.1229C29.2273 14.5243 29.6157 17.107 31.7028 17.8879L25.8851 26.8753C19.7978 24.3406 18.8992 16.5899 23.5603 9.56155C28.1461 2.65046 36.7002 -1.41411 42.9875 0.45426L37.4046 9.07647C35.2972 8.37017 32.3521 9.7348 30.7926 12.1229H30.7955Z" fill="white"/>
</mask>
<g mask="url(#mask5_331_12258)">
<path d="M34.016 12.6364C32.3086 14.766 32.7144 17.3354 34.9638 18.3828L28.633 26.352C22.0732 23.0471 21.1457 15.363 26.2184 9.14758C31.2071 3.0334 40.4714 0.237515 47.2486 2.92146L41.1729 10.5682C38.9003 9.59268 35.7146 10.5202 34.016 12.6364Z" fill="#2D2E8C"/>
<path d="M37.3961 1.97043C40.2078 1.32542 43.0283 1.28811 45.698 1.7572C41.1499 -1.60906 34.9988 -3.04832 28.8883 -1.64904C18.5341 0.723069 12.2265 10.3448 14.7977 19.8412C16.6731 26.7603 22.7431 31.6991 29.9029 32.9571C26.7433 30.6196 24.3605 27.352 23.3054 23.4607C20.7313 13.9642 27.0419 4.34253 37.3961 1.97043Z" fill="#A4DDEE"/>
</g>
<path d="M35.2477 40.1727C42.8857 40.1727 49.0775 34.4795 49.0775 27.4566C49.0775 20.4337 42.8857 14.7405 35.2477 14.7405C27.6098 14.7405 21.418 20.4337 21.418 27.4566C21.418 34.4795 27.6098 40.1727 35.2477 40.1727Z" fill="#2D2E8C"/>
<mask id="mask6_331_12258" style="mask-type:luminance" maskUnits="userSpaceOnUse" x="21" y="14" width="29" height="27">
<path d="M35.2497 40.1725C42.8877 40.1725 49.0795 34.4793 49.0795 27.4564C49.0795 20.4335 42.8877 14.7404 35.2497 14.7404C27.6117 14.7404 21.4199 20.4335 21.4199 27.4564C21.4199 34.4793 27.6117 40.1725 35.2497 40.1725Z" fill="white"/>
</mask>
<g mask="url(#mask6_331_12258)">
<path d="M29.8942 17.3235C31.1088 15.5724 32.6799 14.1572 34.4655 13.1044C29.9232 13.4429 25.5983 15.663 22.9634 19.4717C18.4965 25.9244 20.5633 34.4853 27.5811 38.5925C32.6944 41.5856 35.2047 43.7232 39.9934 40.9033C36.8367 41.1379 37.3903 38.1288 34.5148 36.4443C27.497 32.3371 25.4302 23.7762 29.8971 17.3235H29.8942Z" fill="#705FA9"/>
<path d="M30.9682 15.1722C32.8176 14.3567 34.7684 13.9595 36.6932 13.9329C33.0118 12.1924 28.5217 11.9979 24.5012 13.773C17.6921 16.7794 14.8223 24.2929 18.0921 30.5563C20.4748 35.1166 25.4577 37.7526 30.6204 37.6859C28.0637 36.4759 25.8983 34.5196 24.5591 31.9529C21.2894 25.6921 24.1591 18.176 30.9682 15.1696V15.1722Z" fill="#A4DDEE"/>
</g>
<path d="M40.5703 37.6778C44.756 39.9113 50.997 39.5781 56.9191 36.1852C65.5109 31.2651 69.5053 22.1685 65.9688 16.1849L60.5048 8.2157L52.2811 14.9775L58.8293 20.9345L38.4658 32.6431L40.5703 37.6805V37.6778Z" fill="#705FA9"/>
<path d="M40.5713 37.6773C44.757 39.9108 50.998 39.5777 56.92 36.1847C65.5118 31.2646 69.5063 22.168 65.9698 16.1844L60.5057 8.21521L52.2821 14.977L58.8303 20.934L38.4668 32.6426L40.5713 37.68V37.6773Z" fill="white"/>
<path d="M40.5703 37.6778C44.756 39.9113 50.997 39.5781 56.9191 36.1852C65.5109 31.2651 69.5053 22.1685 65.9688 16.1849L60.5048 8.2157L52.2811 14.9775L58.8293 20.9345L38.4658 32.6431L40.5703 37.6805V37.6778Z" fill="#1F1C6B"/>
<path d="M42.3907 22.102L42.5849 21.9527C43.8574 23.8611 46.9329 23.8797 49.4403 21.9634C51.9506 20.0417 52.8753 16.9553 51.5216 15.1002L60.5047 8.21313C64.8818 13.709 62.2469 23.2134 54.4493 29.149C49.0751 33.2402 42.9356 34.3383 38.4629 32.6405C42.2138 28.3467 42.6052 24.4048 42.3878 22.102H42.3907Z" fill="#2D2E8C"/>
<path d="M60.5056 8.21313L51.5225 15.1002C51.7775 15.4494 51.9486 15.8385 52.0471 16.2596L61.1984 9.21528C60.9897 8.8688 60.7607 8.53297 60.5056 8.21313Z" fill="#705FA9"/>
<path d="M23.8039 33.037L24.6996 32.7811C30.4361 31.1367 36.5901 33.7886 38.8888 38.8953L23.8763 75.8922L8.64648 65.311L23.8068 33.037H23.8039Z" fill="#1F1C6B"/>
<mask id="mask7_331_12258" style="mask-type:luminance" maskUnits="userSpaceOnUse" x="8" y="32" width="31" height="44">
<path d="M23.8009 33.0373L24.6967 32.7814C30.4332 31.1369 36.5872 33.7889 38.8859 38.8956L23.8734 75.8924L8.64355 65.3112L23.8038 33.0373H23.8009Z" fill="white"/>
</mask>
<g mask="url(#mask7_331_12258)">
<path d="M20.4171 34.0768L21.0056 35.1935C26.7363 33.2239 33.5048 34.0848 35.8006 39.1915L20.4867 76.932L5.25684 66.3508L20.4171 34.0768Z" fill="#2D2E8C"/>
<path d="M31.675 35.1791L18.7235 62.4957L7.37793 59.3533L16.0132 40.5044C16.8104 38.7853 20.3149 35.2324 22.2889 34.7767C27.7559 33.5213 30.8488 34.8033 31.675 35.1791Z" fill="#705FA9"/>
<path d="M21.0067 34.9933L3.5332 66.9848L9.12193 69.9592L26.1432 34.2497C26.1693 34.183 22.4734 34.6042 21.0067 34.9933Z" fill="#A4DDEE"/>
<path d="M34.3823 50.5186C31.8459 46.2328 28.35 43.9806 23.9932 43.8287C20.7438 43.7114 18.2103 44.8682 18.1842 44.8788L17.877 44.3218C17.9871 44.2711 20.5902 43.0771 24.0164 43.205C27.1876 43.317 31.6633 44.6256 34.9765 50.2227L34.3794 50.5212L34.3823 50.5186Z" fill="#1F1C6B"/>
<path d="M30.6977 57.6752C24.2974 48.0215 14.8794 51.8595 14.4823 52.0274L14.1982 51.4597C14.2997 51.4171 24.5583 47.2112 31.2775 57.35L30.6977 57.6752Z" fill="#1F1C6B"/>
<path d="M37.773 43.6373C31.8567 33.7384 21.9837 37.8216 21.5663 38.0002L21.2793 37.4352C21.3865 37.3899 32.1437 32.9202 38.3672 43.3388L37.7701 43.64L37.773 43.6373Z" fill="#1F1C6B"/>
</g>
<path d="M16.9057 86.4123C26.119 86.4123 33.5879 79.5449 33.5879 71.0736C33.5879 62.6022 26.119 55.7349 16.9057 55.7349C7.69247 55.7349 0.223633 62.6022 0.223633 71.0736C0.223633 79.5449 7.69247 86.4123 16.9057 86.4123Z" fill="#1F1C6B"/>
<mask id="mask8_331_12258" style="mask-type:luminance" maskUnits="userSpaceOnUse" x="0" y="55" width="34" height="32">
<path d="M16.9067 86.4122C26.12 86.4122 33.5888 79.5448 33.5888 71.0735C33.5888 62.6021 26.12 55.7347 16.9067 55.7347C7.69345 55.7347 0.224609 62.6021 0.224609 71.0735C0.224609 79.5448 7.69345 86.4122 16.9067 86.4122Z" fill="white"/>
</mask>
<g mask="url(#mask8_331_12258)">
<path d="M14.603 87.6091C23.4656 87.6091 30.6503 81.003 30.6503 72.854C30.6503 64.7051 23.4656 58.099 14.603 58.099C5.74028 58.099 -1.44434 64.7051 -1.44434 72.854C-1.44434 81.003 5.74028 87.6091 14.603 87.6091Z" fill="#2D2E8C"/>
<path d="M15.6795 85.0714C5.93693 82.9765 -0.115591 74.0131 2.1657 65.0551C3.23533 60.8466 5.95722 57.3871 9.54873 55.1189C4.6557 57.3524 0.843885 61.5023 -0.495322 66.7742C-2.88097 76.156 3.45273 85.5378 13.6562 87.734C23.1582 89.7783 32.6602 84.8635 35.8488 76.6011C32.1036 83.1631 23.8916 86.8385 15.6795 85.0714Z" fill="#A4DDEE"/>
</g>
<path d="M30.3534 73.7203L30.0201 73.3018C29.336 72.4409 28.2953 71.8865 27.1474 71.7319C19.8775 70.7538 12.9176 74.7224 11.9727 82.4278L30.4723 119.656L53.7171 103.827L30.3534 73.7203Z" fill="#1F1C6B"/>
<mask id="mask9_331_12258" style="mask-type:luminance" maskUnits="userSpaceOnUse" x="11" y="71" width="43" height="49">
<path d="M30.3564 73.72L30.023 73.3016C29.3389 72.4407 28.2983 71.8863 27.1504 71.7317C19.8804 70.7535 12.9206 74.7222 11.9756 82.4275L30.4752 119.656L53.72 103.827L30.3564 73.72Z" fill="white"/>
</mask>
<g mask="url(#mask9_331_12258)">
<path d="M30.3251 77.4327L29.899 76.8969C29.0178 75.7935 27.6844 75.0792 26.2118 74.882C16.8779 73.6266 10.292 81.9743 10.6631 90.7991L6.73242 88.6109L30.4787 136.399L60.3152 116.082L30.3251 77.4353V77.4327Z" fill="#2D2E8C"/>
<path d="M11.9209 84.4584L26.8145 108.03L31.3916 103.025C31.3916 103.025 16.8023 77.5926 16.8023 77.2488C16.8023 77.2488 12.4079 80.3245 11.9209 84.4584Z" fill="#705FA9"/>
<path d="M11.2969 85.9384L23.9469 108.364L25.9963 105.837C25.9963 105.837 13.5318 80.9144 13.5318 80.5706C13.5318 80.5706 11.8795 82.8201 11.2969 85.9384Z" fill="#A4DDEE"/>
<path d="M21.1294 101.519L20.5352 101.388C20.5699 101.255 24.173 88.2217 42.4089 89.2318L42.3741 89.7915C24.6426 88.8454 21.1613 101.394 21.1294 101.521V101.519Z" fill="#1F1C6B"/>
<path d="M17.4312 93.4646L16.8369 93.334C16.8688 93.2141 20.1936 81.183 37.012 82.1185L36.9772 82.6782C20.6632 81.7853 17.463 93.35 17.4312 93.4673V93.4646Z" fill="#1F1C6B"/>
<path d="M14.0327 86.5236L13.4385 86.393C13.4675 86.2784 16.5604 75.0842 32.2106 75.9557L32.1758 76.5154C24.2652 76.0863 19.7577 78.8236 17.3691 81.1983C14.7748 83.7757 14.0385 86.4969 14.0327 86.5236Z" fill="#1F1C6B"/>
</g>
<path d="M42.8415 132.511C54.4674 132.511 63.892 123.846 63.892 113.156C63.892 102.466 54.4674 93.8008 42.8415 93.8008C31.2156 93.8008 21.791 102.466 21.791 113.156C21.791 123.846 31.2156 132.511 42.8415 132.511Z" fill="#1F1C6B"/>
<mask id="mask10_331_12258" style="mask-type:luminance" maskUnits="userSpaceOnUse" x="21" y="93" width="43" height="40">
<path d="M42.8483 132.511C54.4742 132.511 63.8988 123.846 63.8988 113.156C63.8988 102.466 54.4742 93.8005 42.8483 93.8005C31.2225 93.8005 21.7979 102.466 21.7979 113.156C21.7979 123.846 31.2225 132.511 42.8483 132.511Z" fill="white"/>
</mask>
<g mask="url(#mask10_331_12258)">
<path d="M47.9486 132.69C58.7355 132.69 67.4801 124.65 67.4801 114.732C67.4801 104.813 58.7355 96.7728 47.9486 96.7728C37.1616 96.7728 28.417 104.813 28.417 114.732C28.417 124.65 37.1616 132.69 47.9486 132.69Z" fill="#2D2E8C"/>
</g>
<path d="M169.82 33.2638L164.884 23.842C167.037 23.2343 167.669 20.6943 166.339 18.1729C165.014 15.6676 162.211 14.0711 160.046 14.6041L155.185 5.6674L161.014 0.454102L163.086 0.928523L176.421 8.56724L177.168 15.6889L177.812 21.2354L169.823 33.2638H169.82Z" fill="#1F1C6B"/>
<mask id="mask11_331_12258" style="mask-type:luminance" maskUnits="userSpaceOnUse" x="155" y="0" width="23" height="34">
<path d="M169.826 33.2637L164.89 23.8419C167.043 23.2342 167.675 20.6942 166.345 18.1728C165.02 15.6674 162.217 14.0709 160.052 14.604L155.19 5.66728L161.02 0.453979L163.092 0.928401L176.426 8.56712L177.174 15.6888L177.818 21.2352L169.829 33.2637H169.826Z" fill="white"/>
</mask>
<g mask="url(#mask11_331_12258)">
<path d="M158.417 0.188767L151.906 4.7624L152.187 6.88398L154.556 7.67823L161.568 1.30019L161.249 -1.18652L158.417 0.188767Z" fill="#705FA9"/>
</g>
<path d="M173.218 12.1228C174.787 14.5242 174.398 17.1069 172.311 17.8878L178.129 26.8751C184.216 24.3405 185.115 16.5898 180.454 9.56143C175.868 2.65034 167.314 -1.41423 161.026 0.454138L166.609 9.07635C168.717 8.37005 171.662 9.73467 173.221 12.1228H173.218Z" fill="#2D2E8C"/>
<path d="M173.218 12.1228C174.787 14.5242 174.398 17.1069 172.311 17.8878L178.129 26.8751C184.216 24.3405 185.115 16.5898 180.454 9.56143C175.868 2.65034 167.314 -1.41423 161.026 0.454138L166.609 9.07635C168.717 8.37005 171.662 9.73467 173.221 12.1228H173.218Z" fill="#2D2E8C"/>
<mask id="mask12_331_12258" style="mask-type:luminance" maskUnits="userSpaceOnUse" x="161" y="0" width="23" height="27">
<path d="M173.218 12.1229C174.787 14.5243 174.398 17.107 172.311 17.8879L178.129 26.8753C184.216 24.3406 185.115 16.5899 180.454 9.56155C175.868 2.65046 167.314 -1.41411 161.026 0.45426L166.609 9.07647C168.717 8.37017 171.662 9.7348 173.221 12.1229H173.218Z" fill="white"/>
</mask>
<g mask="url(#mask12_331_12258)">
<path d="M169.994 12.6379C171.702 14.7675 171.296 17.3368 169.046 18.3843L175.377 26.3535C181.937 23.0485 182.865 15.3645 177.792 9.14904C172.803 3.03487 163.539 0.23898 156.762 2.92293L162.837 10.5696C165.11 9.59415 168.296 10.5217 169.994 12.6379Z" fill="#2D2E8C"/>
<path d="M167.218 2.05911C164.351 1.27818 161.447 1.11826 158.67 1.4914C163.525 -1.7869 169.937 -3.01294 176.167 -1.31515C186.724 1.56337 192.747 11.7474 189.625 21.4304C187.35 28.4828 180.848 33.3203 173.404 34.3171C176.775 32.041 179.396 28.7733 180.677 24.8047C183.802 15.1217 177.775 4.93762 167.218 2.05911Z" fill="#FDCF59"/>
</g>
<path d="M168.763 40.1727C176.401 40.1727 182.593 34.4795 182.593 27.4566C182.593 20.4337 176.401 14.7405 168.763 14.7405C161.125 14.7405 154.934 20.4337 154.934 27.4566C154.934 34.4795 161.125 40.1727 168.763 40.1727Z" fill="#2D2E8C"/>
<mask id="mask13_331_12258" style="mask-type:luminance" maskUnits="userSpaceOnUse" x="154" y="14" width="29" height="27">
<path d="M168.759 40.1725C176.397 40.1725 182.589 34.4793 182.589 27.4564C182.589 20.4335 176.397 14.7404 168.759 14.7404C161.121 14.7404 154.93 20.4335 154.93 27.4564C154.93 34.4793 161.121 40.1725 168.759 40.1725Z" fill="white"/>
</mask>
<g mask="url(#mask13_331_12258)">
<path d="M174.123 17.3236C172.908 15.5726 171.337 14.1573 169.551 13.1045C174.094 13.443 178.418 15.6632 181.053 19.4719C185.52 25.9245 183.454 34.4854 176.436 38.5926C171.322 41.5858 168.812 43.7233 164.023 40.9035C167.18 41.138 166.626 38.1289 169.502 36.4444C176.52 32.3372 178.587 23.7763 174.12 17.3236H174.123Z" fill="#705FA9"/>
<path d="M173.045 15.1725C171.196 14.3569 169.245 13.9598 167.32 13.9331C171.002 12.1927 175.492 11.9981 179.512 13.7732C186.321 16.7796 189.191 24.2931 185.921 30.5565C183.539 35.1168 178.556 37.7528 173.393 37.6862C175.95 36.4761 178.115 34.5198 179.454 31.9531C182.724 25.6924 179.854 18.1763 173.045 15.1698V15.1725Z" fill="#FDCF59"/>
</g>
<path d="M163.439 37.6778C159.253 39.9113 153.012 39.5781 147.09 36.1852C138.498 31.2651 134.504 22.1685 138.04 16.1849L143.504 8.2157L151.728 14.9775L145.18 20.9345L165.543 32.6431L163.439 37.6805V37.6778Z" fill="#705FA9"/>
<path d="M163.439 37.6777C159.253 39.9112 153.012 39.578 147.09 36.1851C138.498 31.265 134.504 22.1684 138.04 16.1848L143.504 8.21558L151.728 14.9774L145.18 20.9343L165.543 32.6429L163.439 37.6803V37.6777Z" fill="white"/>
<path d="M163.439 37.6778C159.253 39.9113 153.012 39.5781 147.09 36.1852C138.498 31.2651 134.504 22.1685 138.04 16.1849L143.504 8.2157L151.728 14.9775L145.18 20.9345L165.543 32.6431L163.439 37.6805V37.6778Z" fill="#1F1C6B"/>
<path d="M161.618 22.102L161.424 21.9527C160.151 23.8611 157.076 23.8797 154.568 21.9634C152.058 20.0417 151.133 16.9553 152.487 15.1002L143.504 8.21313C139.127 13.709 141.762 23.2134 149.559 29.149C154.933 33.2402 161.073 34.3383 165.546 32.6405C161.795 28.3467 161.403 24.4048 161.621 22.102H161.618Z" fill="#2D2E8C"/>
<path d="M143.499 8.21313L152.483 15.1002C152.227 15.4494 152.056 15.8385 151.958 16.2596L142.807 9.21528C143.015 8.8688 143.244 8.53297 143.499 8.21313Z" fill="#705FA9"/>
<path d="M180.206 33.037L179.31 32.7811C173.574 31.1367 167.42 33.7886 165.121 38.8953L180.134 75.8922L195.363 65.311L180.203 33.037H180.206Z" fill="#1F1C6B"/>
<mask id="mask14_331_12258" style="mask-type:luminance" maskUnits="userSpaceOnUse" x="165" y="32" width="31" height="44">
<path d="M180.204 33.037L179.308 32.7811C173.572 31.1367 167.418 33.7886 165.119 38.8953L180.132 75.8922L195.361 65.311L180.201 33.037H180.204Z" fill="white"/>
</mask>
<g mask="url(#mask14_331_12258)">
<path d="M183.59 34.0767L183.001 35.1934C177.27 33.2238 170.502 34.0847 168.206 39.1914L183.52 76.9319L198.75 66.3507L183.59 34.0767Z" fill="#2D2E8C"/>
<path d="M172.34 35.179L185.291 62.4955L196.637 59.3532L188.002 40.5043C187.204 38.7851 183.7 35.2323 181.726 34.7765C176.259 33.5212 173.166 34.8032 172.34 35.179Z" fill="#705FA9"/>
<path d="M182.999 34.9928L200.472 66.9843L194.884 69.9587L177.862 34.2492C177.836 34.1826 181.532 34.6037 182.999 34.9928Z" fill="#FDCF59"/>
<path d="M169.631 50.5185C172.168 46.2327 175.664 43.9805 180.02 43.8286C183.27 43.7113 185.803 44.868 185.829 44.8787L186.137 44.3217C186.026 44.271 183.423 43.077 179.997 43.2049C176.826 43.3168 172.35 44.6255 169.037 50.2226L169.634 50.5211L169.631 50.5185Z" fill="#1F1C6B"/>
<path d="M173.317 57.6749C179.717 48.0212 189.135 51.8592 189.532 52.0272L189.817 51.4595C189.715 51.4168 179.457 47.211 172.737 57.3497L173.317 57.6749Z" fill="#1F1C6B"/>
<path d="M166.238 43.6367C172.154 33.7378 182.027 37.821 182.445 37.9996L182.731 37.4346C182.624 37.3893 171.867 32.9196 165.644 43.3382L166.241 43.6394L166.238 43.6367Z" fill="#1F1C6B"/>
</g>
<path d="M187.102 86.4123C196.315 86.4123 203.784 79.5449 203.784 71.0736C203.784 62.6022 196.315 55.7349 187.102 55.7349C177.889 55.7349 170.42 62.6022 170.42 71.0736C170.42 79.5449 177.889 86.4123 187.102 86.4123Z" fill="#1F1C6B"/>
<mask id="mask15_331_12258" style="mask-type:luminance" maskUnits="userSpaceOnUse" x="170" y="55" width="34" height="32">
<path d="M187.106 86.4122C196.319 86.4122 203.788 79.5448 203.788 71.0735C203.788 62.6021 196.319 55.7347 187.106 55.7347C177.893 55.7347 170.424 62.6021 170.424 71.0735C170.424 79.5448 177.893 86.4122 187.106 86.4122Z" fill="white"/>
</mask>
<g mask="url(#mask15_331_12258)">
<path d="M189.405 87.6096C198.267 87.6096 205.452 81.0035 205.452 72.8545C205.452 64.7055 198.267 58.0995 189.405 58.0995C180.542 58.0995 173.357 64.7055 173.357 72.8545C173.357 81.0035 180.542 87.6096 189.405 87.6096Z" fill="#2D2E8C"/>
<path d="M188.329 85.072C198.072 82.9771 204.125 74.0137 201.843 65.0557C200.774 60.8472 198.052 57.3877 194.46 55.1195C199.353 57.353 203.165 61.5029 204.504 66.7748C206.89 76.1566 200.556 85.5384 190.353 87.7346C180.851 89.7789 171.349 84.8641 168.16 76.6017C171.905 83.1637 180.117 86.8391 188.329 85.072Z" fill="#FDCF59"/>
</g>
<path d="M173.653 73.7199L173.986 73.3014C174.67 72.4405 175.711 71.8862 176.859 71.7316C184.129 70.7534 191.089 74.722 192.033 82.4274L173.534 119.656L150.289 103.827L173.653 73.7199Z" fill="#1F1C6B"/>
<mask id="mask16_331_12258" style="mask-type:luminance" maskUnits="userSpaceOnUse" x="150" y="71" width="43" height="49">
<path d="M173.658 73.7203L173.991 73.3018C174.675 72.4409 175.716 71.8865 176.864 71.7319C184.134 70.7538 191.093 74.7224 192.038 82.4278L173.539 119.656L150.294 103.827L173.658 73.7203Z" fill="white"/>
</mask>
<g mask="url(#mask16_331_12258)">
<path d="M173.685 77.4329L174.112 76.8972C174.993 75.7938 176.326 75.0795 177.799 74.8822C187.133 73.6269 193.718 81.9745 193.347 90.7993L197.278 88.6111L173.532 136.4L143.695 116.082L173.685 77.4356V77.4329Z" fill="#2D2E8C"/>
<path d="M192.09 84.4588L177.196 108.031L172.619 103.025C172.619 103.025 187.208 77.593 187.208 77.2491C187.208 77.2491 191.603 80.3249 192.09 84.4588Z" fill="#705FA9"/>
<path d="M192.726 85.9387L180.076 108.364L178.026 105.838C178.026 105.838 190.491 80.9146 190.491 80.5708C190.491 80.5708 192.143 82.8203 192.726 85.9387Z" fill="#FDCF59"/>
<path d="M182.879 101.519L183.473 101.389C183.439 101.255 179.835 88.2221 161.6 89.2322L161.634 89.7919C179.366 88.8457 182.847 101.394 182.879 101.522V101.519Z" fill="#1F1C6B"/>
<path d="M186.585 93.4652L187.179 93.3346C187.147 93.2147 183.822 81.1836 167.004 82.1191L167.039 82.6788C183.353 81.786 186.553 93.3506 186.585 93.4679V93.4652Z" fill="#1F1C6B"/>
<path d="M189.984 86.5232L190.579 86.3926C190.55 86.278 187.457 75.0838 171.807 75.9553L171.841 76.5151C179.752 76.0859 184.26 78.8232 186.648 81.198C189.242 83.7753 189.979 86.4966 189.984 86.5232Z" fill="#1F1C6B"/>
</g>
<path d="M161.166 132.511C172.792 132.511 182.216 123.846 182.216 113.156C182.216 102.466 172.792 93.8008 161.166 93.8008C149.54 93.8008 140.115 102.466 140.115 113.156C140.115 123.846 149.54 132.511 161.166 132.511Z" fill="#1F1C6B"/>
<mask id="mask17_331_12258" style="mask-type:luminance" maskUnits="userSpaceOnUse" x="140" y="93" width="43" height="40">
<path d="M161.172 132.512C172.797 132.512 182.222 123.846 182.222 113.157C182.222 102.467 172.797 93.8013 161.172 93.8013C149.546 93.8013 140.121 102.467 140.121 113.157C140.121 123.846 149.546 132.512 161.172 132.512Z" fill="white"/>
</mask>
<g mask="url(#mask17_331_12258)">
<path d="M156.062 132.69C166.849 132.69 175.593 124.65 175.593 114.732C175.593 104.813 166.849 96.7729 156.062 96.7729C145.275 96.7729 136.53 104.813 136.53 114.732C136.53 124.65 145.275 132.69 156.062 132.69Z" fill="#2D2E8C"/>
</g>
<path d="M101.437 120.878C113.841 120.878 123.896 116.832 123.896 111.842C123.896 106.852 113.841 102.807 101.437 102.807C89.0329 102.807 78.9775 106.852 78.9775 111.842C78.9775 116.832 89.0329 120.878 101.437 120.878Z" fill="#2D2E8C"/>
<path d="M173.764 163.978L30.0568 163.644C26.4885 163.636 24.468 164.881 25.5174 166.387L38.8109 195.295C39.3646 196.089 41.8401 196.726 44.3533 196.731L159.232 196.931C161.74 196.937 164.215 196.31 164.775 195.519L178.268 166.739C179.326 165.241 177.323 163.988 173.767 163.98L173.764 163.978Z" fill="#1F1C6B"/>
<path d="M174.788 168.645L29.0205 168.991C25.4029 168.999 23.3477 166.584 24.4057 163.669L45.5838 107.716C46.1432 106.178 48.6535 104.95 51.2015 104.944L152.149 104.771C154.691 104.766 157.205 105.986 157.776 107.522L179.345 163.311C180.423 166.217 178.394 168.639 174.788 168.647V168.645Z" fill="#1F1C6B"/>
<path d="M149.656 162.645H54.1053C51.7341 162.65 49.8848 161.179 46.7773 157.885L62.271 120.155C62.6014 119.02 64.3001 118.111 66.0683 118.108L137.371 117.983C139.136 117.98 140.838 118.881 141.177 120.014L157.152 158.031C154.934 160.987 152.038 162.645 149.653 162.645H149.656Z" fill="#705FA9"/>
<path d="M156.23 159.094L48.8002 159.34C46.2203 159.345 45.7536 157.615 46.3797 155.52L58.9892 113.289C59.3515 112.071 61.1951 111.095 63.1111 111.093L140.301 110.957C142.211 110.954 144.058 111.922 144.432 113.137L157.334 155.264C157.975 157.354 158.801 159.089 156.23 159.094Z" fill="#2D2E8C"/>
<path d="M104.612 116.848C104.649 118.415 102.701 119.713 100.261 119.718C97.82 119.723 95.8894 118.431 95.9445 116.864C95.9996 115.331 97.9475 114.108 100.295 114.102C102.643 114.097 104.574 115.315 104.612 116.848Z" fill="#1F1C6B"/>
<path d="M104.761 124.657C104.802 126.397 102.75 127.842 100.176 127.847C97.6015 127.852 95.5666 126.416 95.6304 124.673C95.6912 122.97 97.7464 121.613 100.216 121.608C102.689 121.602 104.724 122.951 104.761 124.654V124.657Z" fill="#1F1C6B"/>
<path d="M143.791 124.596C145.609 131.102 139.194 136.816 129.321 136.837C119.445 136.859 111.082 131.174 110.676 124.66C110.302 118.66 116.926 114.118 125.439 114.102C133.953 114.086 142.116 118.601 143.788 124.596H143.791Z" fill="#705FA9"/>
<path d="M143.791 124.596C145.609 131.102 139.194 136.816 129.321 136.837C119.445 136.859 111.082 131.174 110.676 124.66C110.302 118.66 116.926 114.118 125.439 114.102C133.953 114.086 142.116 118.601 143.788 124.596H143.791Z" fill="#705FA9"/>
<mask id="mask18_331_12258" style="mask-type:luminance" maskUnits="userSpaceOnUse" x="110" y="114" width="35" height="23">
<path d="M143.798 124.596C145.615 131.102 139.201 136.817 129.328 136.838C119.452 136.859 111.089 131.174 110.683 124.66C110.309 118.661 116.933 114.119 125.446 114.103C133.96 114.087 142.123 118.602 143.795 124.596H143.798Z" fill="white"/>
</mask>
<g mask="url(#mask18_331_12258)">
<path d="M143.884 126.193C145.705 132.728 139.281 138.464 129.385 138.485C119.489 138.506 111.108 132.797 110.703 126.257C110.329 120.23 116.964 115.67 125.498 115.657C134.029 115.641 142.209 120.174 143.887 126.193H143.884Z" fill="#1F1C6B"/>
</g>
<path d="M74.9313 155.371L67.7715 155.4L75.514 114.117L81.0592 114.101L74.9313 155.371Z" fill="#1F1C6B"/>
<path d="M85.8845 155.372L78.7275 155.401L84.0032 114.118L89.5485 114.102L85.8845 155.372Z" fill="#1F1C6B"/>
<path d="M66.2096 131.759C65.8009 132.812 64.2906 133.582 62.8442 133.476C61.3977 133.366 60.5832 132.423 61.0151 131.375C61.4441 130.339 62.9427 129.587 64.3631 129.694C65.7864 129.797 66.6154 130.72 66.2096 131.762V131.759Z" fill="#E9509C"/>
<path d="M69.5988 117.783C69.2451 118.66 67.8856 119.302 66.5638 119.211C65.242 119.121 64.4767 118.335 64.8507 117.463C65.2217 116.597 66.5725 115.973 67.8711 116.061C69.1727 116.149 69.9466 116.917 69.5988 117.786V117.783Z" fill="#E9509C"/>
<path d="M62.1053 148.698C61.6212 149.985 59.9284 150.931 58.3312 150.798C56.734 150.665 55.8615 149.508 56.3745 148.226C56.8818 146.957 58.5602 146.043 60.1255 146.171C61.6937 146.299 62.5836 147.424 62.1053 148.698Z" fill="#E9509C"/>
<path d="M87.5711 71.1136C89.6523 71.1136 91.3394 70.1029 91.3394 68.8561C91.3394 67.6094 89.6523 66.5986 87.5711 66.5986C85.4899 66.5986 83.8027 67.6094 83.8027 68.8561C83.8027 70.1029 85.4899 71.1136 87.5711 71.1136Z" fill="#EF77A8"/>
<path d="M28.0468 163.847L48.2305 107.521C48.6334 106.351 50.0973 105.36 51.8365 104.941H51.2017C48.6537 104.947 46.1434 106.175 45.584 107.713L24.406 163.666C23.3479 166.582 25.4002 168.999 29.0207 168.988L30.7542 168.983C28.3946 168.327 27.2177 166.254 28.0468 163.842V163.847Z" fill="#A4DDEE"/>
<path d="M179.346 163.308L157.777 107.519C157.208 105.983 154.692 104.765 152.15 104.768H151.576C153.295 105.186 154.742 106.165 155.15 107.321L175.705 163.482C176.557 165.91 175.372 167.999 172.977 168.647L174.789 168.642C178.395 168.634 180.424 166.211 179.346 163.306V163.308Z" fill="#FDCF59"/>
<path d="M193.395 193.678H10.2109V239.622H193.395V193.678Z" fill="#1F1C6B"/>
</svg>
